<?xml version="1.0" encoding="UTF-8" standalone="no"?>
<!-- Created with Inkscape (http://www.inkscape.org/) -->

<svg
   xmlns:dc="http://purl.org/dc/elements/1.1/"
   xmlns:cc="http://creativecommons.org/ns#"
   xmlns:rdf="http://www.w3.org/1999/02/22-rdf-syntax-ns#"
   xmlns:svg="http://www.w3.org/2000/svg"
   xmlns="http://www.w3.org/2000/svg"
   xmlns:sodipodi="http://sodipodi.sourceforge.net/DTD/sodipodi-0.dtd"
   xmlns:inkscape="http://www.inkscape.org/namespaces/inkscape"
   width="1417.3228"
   height="1062.9921"
   id="svg2"
   version="1.1"
   inkscape:version="0.48.4 r9939"
   sodipodi:docname="eierschale2flat.svg">
  <defs
     id="defs4" />
  <sodipodi:namedview
     id="base"
     pagecolor="#ffffff"
     bordercolor="#666666"
     borderopacity="1.0"
     inkscape:pageopacity="0.0"
     inkscape:pageshadow="2"
     inkscape:zoom="0.75436461"
     inkscape:cx="693.26172"
     inkscape:cy="791.0799"
     inkscape:document-units="mm"
     inkscape:current-layer="layer3"
     showgrid="true"
     units="mm"
     showguides="true"
     inkscape:guide-bbox="true"
     inkscape:window-width="1920"
     inkscape:window-height="1055"
     inkscape:window-x="0"
     inkscape:window-y="0"
     inkscape:window-maximized="1"
     inkscape:snap-center="false"
     inkscape:snap-object-midpoints="false"
     inkscape:object-nodes="false"
     inkscape:snap-nodes="true"
     inkscape:snap-smooth-nodes="true">
    <inkscape:grid
       type="xygrid"
       id="grid2985"
       units="mm"
       empspacing="5"
       visible="true"
       enabled="true"
       snapvisiblegridlinesonly="true"
       dotted="true"
       spacingx="1mm"
       spacingy="1mm" />
    <sodipodi:guide
       orientation="1,0"
       position="336.61417,726.37795"
       id="guide3973" />
    <sodipodi:guide
       orientation="0,1"
       position="-106.29921,637.79528"
       id="guide3975" />
    <sodipodi:guide
       orientation="1,0"
       position="1045.2756,637.79528"
       id="guide4293" />
  </sodipodi:namedview>
  <metadata
     id="metadata7">
    <rdf:RDF>
      <cc:Work
         rdf:about="">
        <dc:format>image/svg+xml</dc:format>
        <dc:type
           rdf:resource="http://purl.org/dc/dcmitype/StillImage" />
        <dc:title></dc:title>
      </cc:Work>
    </rdf:RDF>
  </metadata>
  <g
     inkscape:label="tom"
     inkscape:groupmode="layer"
     id="layer1"
     transform="translate(0,10.642138)"
     style="display:none"
     sodipodi:insensitive="true">
    <g
       id="g3897"
       transform="translate(29.879137,26.18728)"
       style="stroke:#9f9f9f;stroke-opacity:1">
      <path
         transform="matrix(0.76558189,0,0,0.74699587,171.49476,127.46016)"
         d="m 195.02548,229.61409 -24.85868,51.27237 -56.96698,-1.25437 -50.248236,26.86865 -45.34996,-34.49915 -56.444673,-7.79798 -16.410792,-54.56644 -41.081166,-39.48604 18.796741,-53.7912 -10.02605,-56.091782 46.824557,-32.469549 24.858677,-51.272368 56.966985,1.254368 50.248234,-26.868654 45.349963,34.499159 56.44467,7.7979728 16.41079,54.5664432 41.08117,39.486039 -18.79674,53.791201 10.02605,56.09178 z"
         inkscape:randomized="0"
         inkscape:rounded="0"
         inkscape:flatsided="false"
         sodipodi:arg2="1.0221274"
         sodipodi:arg1="0.70796817"
         sodipodi:r2="178.35986"
         sodipodi:r1="155.17308"
         sodipodi:cy="128.70634"
         sodipodi:cx="77.14286"
         sodipodi:sides="10"
         id="path2987-6-3-7-8"
         style="fill:none;stroke:#9f9f9f;stroke-width:0.05020323;stroke-linecap:butt;stroke-linejoin:miter;stroke-miterlimit:4;stroke-opacity:1;stroke-dasharray:none"
         sodipodi:type="star" />
      <path
         transform="matrix(0.66345628,0,0,0.64734955,179.37302,140.28528)"
         d="m 195.02548,229.61409 -24.85868,51.27237 -56.96698,-1.25437 -50.248236,26.86865 -45.34996,-34.49915 -56.444673,-7.79798 -16.410792,-54.56644 -41.081166,-39.48604 18.796741,-53.7912 -10.02605,-56.091782 46.824557,-32.469549 24.858677,-51.272368 56.966985,1.254368 50.248234,-26.868654 45.349963,34.499159 56.44467,7.7979728 16.41079,54.5664432 41.08117,39.486039 -18.79674,53.791201 10.02605,56.09178 z"
         inkscape:randomized="0"
         inkscape:rounded="0"
         inkscape:flatsided="false"
         sodipodi:arg2="1.0221274"
         sodipodi:arg1="0.70796817"
         sodipodi:r2="178.35986"
         sodipodi:r1="155.17308"
         sodipodi:cy="128.70634"
         sodipodi:cx="77.14286"
         sodipodi:sides="10"
         id="path2987-6-3-7-8-8"
         style="fill:none;stroke:#9f9f9f;stroke-width:0.05857536;stroke-linecap:butt;stroke-linejoin:miter;stroke-miterlimit:4;stroke-opacity:1;stroke-dasharray:none"
         sodipodi:type="star" />
      <path
         transform="matrix(0.56133067,0,0,0.54770327,187.25129,153.11039)"
         d="m 195.02548,229.61409 -24.85868,51.27237 -56.96698,-1.25437 -50.248236,26.86865 -45.34996,-34.49915 -56.444673,-7.79798 -16.410792,-54.56644 -41.081166,-39.48604 18.796741,-53.7912 -10.02605,-56.091782 46.824557,-32.469549 24.858677,-51.272368 56.966985,1.254368 50.248234,-26.868654 45.349963,34.499159 56.44467,7.7979728 16.41079,54.5664432 41.08117,39.486039 -18.79674,53.791201 10.02605,56.09178 z"
         inkscape:randomized="0"
         inkscape:rounded="0"
         inkscape:flatsided="false"
         sodipodi:arg2="1.0221274"
         sodipodi:arg1="0.70796817"
         sodipodi:r2="178.35986"
         sodipodi:r1="155.17308"
         sodipodi:cy="128.70634"
         sodipodi:cx="77.14286"
         sodipodi:sides="10"
         id="path2987-6-3-7-8-8-4"
         style="fill:none;stroke:#9f9f9f;stroke-width:0.06390381;stroke-linecap:butt;stroke-linejoin:miter;stroke-miterlimit:4;stroke-opacity:1;stroke-dasharray:none"
         sodipodi:type="star" />
      <path
         transform="matrix(0.45920508,0,0,0.44805698,195.12955,165.9355)"
         d="m 195.02548,229.61409 -24.85868,51.27237 -56.96698,-1.25437 -50.248236,26.86865 -45.34996,-34.49915 -56.444673,-7.79798 -16.410792,-54.56644 -41.081166,-39.48604 18.796741,-53.7912 -10.02605,-56.091782 46.824557,-32.469549 24.858677,-51.272368 56.966985,1.254368 50.248234,-26.868654 45.349963,34.499159 56.44467,7.7979728 16.41079,54.5664432 41.08117,39.486039 -18.79674,53.791201 10.02605,56.09178 z"
         inkscape:randomized="0"
         inkscape:rounded="0"
         inkscape:flatsided="false"
         sodipodi:arg2="1.0221274"
         sodipodi:arg1="0.70796817"
         sodipodi:r2="178.35986"
         sodipodi:r1="155.17308"
         sodipodi:cy="128.70634"
         sodipodi:cx="77.14286"
         sodipodi:sides="10"
         id="path2987-6-3-7-8-8-4-4"
         style="fill:none;stroke:#9f9f9f;stroke-width:0.07811579;stroke-linecap:butt;stroke-linejoin:miter;stroke-miterlimit:4;stroke-opacity:1;stroke-dasharray:none"
         sodipodi:type="star" />
      <path
         transform="matrix(0.8677075,0,0,0.84664218,163.6165,114.63505)"
         d="m 195.02548,229.61409 -24.85868,51.27237 -56.96698,-1.25437 -50.248236,26.86865 -45.34996,-34.49915 -56.444673,-7.79798 -16.410792,-54.56644 -41.081166,-39.48604 18.796741,-53.7912 -10.02605,-56.091782 46.824557,-32.469549 24.858677,-51.272368 56.966985,1.254368 50.248234,-26.868654 45.349963,34.499159 56.44467,7.7979728 16.41079,54.5664432 41.08117,39.486039 -18.79674,53.791201 10.02605,56.09178 z"
         inkscape:randomized="0"
         inkscape:rounded="0"
         inkscape:flatsided="false"
         sodipodi:arg2="1.0221274"
         sodipodi:arg1="0.70796817"
         sodipodi:r2="178.35986"
         sodipodi:r1="155.17308"
         sodipodi:cy="128.70634"
         sodipodi:cx="77.14286"
         sodipodi:sides="10"
         id="path2987-6-3-7-8-4"
         style="fill:none;stroke:#9f9f9f;stroke-width:0.05020323;stroke-linecap:butt;stroke-linejoin:miter;stroke-miterlimit:4;stroke-opacity:1;stroke-dasharray:none"
         sodipodi:type="star" />
      <path
         transform="matrix(0.969833,0,0,0.94628841,155.73825,101.80995)"
         d="m 195.02548,229.61409 -24.85868,51.27237 -56.96698,-1.25437 -50.248236,26.86865 -45.34996,-34.49915 -56.444673,-7.79798 -16.410792,-54.56644 -41.081166,-39.48604 18.796741,-53.7912 -10.02605,-56.091782 46.824557,-32.469549 24.858677,-51.272368 56.966985,1.254368 50.248234,-26.868654 45.349963,34.499159 56.44467,7.7979728 16.41079,54.5664432 41.08117,39.486039 -18.79674,53.791201 10.02605,56.09178 z"
         inkscape:randomized="0"
         inkscape:rounded="0"
         inkscape:flatsided="false"
         sodipodi:arg2="1.0221274"
         sodipodi:arg1="0.70796817"
         sodipodi:r2="178.35986"
         sodipodi:r1="155.17308"
         sodipodi:cy="128.70634"
         sodipodi:cx="77.14286"
         sodipodi:sides="10"
         id="path2987-6-3-7-8-8-4-4-3"
         style="fill:none;stroke:#9f9f9f;stroke-width:0.07811579;stroke-linecap:butt;stroke-linejoin:miter;stroke-miterlimit:4;stroke-opacity:1;stroke-dasharray:none"
         sodipodi:type="star" />
      <path
         transform="matrix(1.0719588,0,0,1.0459349,147.85997,88.984815)"
         d="m 195.02548,229.61409 -24.85868,51.27237 -56.96698,-1.25437 -50.248236,26.86865 -45.34996,-34.49915 -56.444673,-7.79798 -16.410792,-54.56644 -41.081166,-39.48604 18.796741,-53.7912 -10.02605,-56.091782 46.824557,-32.469549 24.858677,-51.272368 56.966985,1.254368 50.248234,-26.868654 45.349963,34.499159 56.44467,7.7979728 16.41079,54.5664432 41.08117,39.486039 -18.79674,53.791201 10.02605,56.09178 z"
         inkscape:randomized="0"
         inkscape:rounded="0"
         inkscape:flatsided="false"
         sodipodi:arg2="1.0221274"
         sodipodi:arg1="0.70796817"
         sodipodi:r2="178.35986"
         sodipodi:r1="155.17308"
         sodipodi:cy="128.70634"
         sodipodi:cx="77.14286"
         sodipodi:sides="10"
         id="path2987-6-3-7-8-8-4-4-3-9"
         style="fill:none;stroke:#9f9f9f;stroke-width:0.07811579;stroke-linecap:butt;stroke-linejoin:miter;stroke-miterlimit:4;stroke-opacity:1;stroke-dasharray:none"
         sodipodi:type="star" />
      <path
         transform="matrix(1.1740844,0,0,1.1455812,139.98171,76.159704)"
         d="m 195.02548,229.61409 -24.85868,51.27237 -56.96698,-1.25437 -50.248236,26.86865 -45.34996,-34.49915 -56.444673,-7.79798 -16.410792,-54.56644 -41.081166,-39.48604 18.796741,-53.7912 -10.02605,-56.091782 46.824557,-32.469549 24.858677,-51.272368 56.966985,1.254368 50.248234,-26.868654 45.349963,34.499159 56.44467,7.7979728 16.41079,54.5664432 41.08117,39.486039 -18.79674,53.791201 10.02605,56.09178 z"
         inkscape:randomized="0"
         inkscape:rounded="0"
         inkscape:flatsided="false"
         sodipodi:arg2="1.0221274"
         sodipodi:arg1="0.70796817"
         sodipodi:r2="178.35986"
         sodipodi:r1="155.17308"
         sodipodi:cy="128.70634"
         sodipodi:cx="77.14286"
         sodipodi:sides="10"
         id="path2987-6-3-7-8-8-4-4-3-9-1"
         style="fill:none;stroke:#9f9f9f;stroke-width:0.07811579;stroke-linecap:butt;stroke-linejoin:miter;stroke-miterlimit:4;stroke-opacity:1;stroke-dasharray:none"
         sodipodi:type="star" />
      <path
         transform="matrix(1.27621,0,0,1.2452275,132.10345,63.334593)"
         d="m 195.02548,229.61409 -24.85868,51.27237 -56.96698,-1.25437 -50.248236,26.86865 -45.34996,-34.49915 -56.444673,-7.79798 -16.410792,-54.56644 -41.081166,-39.48604 18.796741,-53.7912 -10.02605,-56.091782 46.824557,-32.469549 24.858677,-51.272368 56.966985,1.254368 50.248234,-26.868654 45.349963,34.499159 56.44467,7.7979728 16.41079,54.5664432 41.08117,39.486039 -18.79674,53.791201 10.02605,56.09178 z"
         inkscape:randomized="0"
         inkscape:rounded="0"
         inkscape:flatsided="false"
         sodipodi:arg2="1.0221274"
         sodipodi:arg1="0.70796817"
         sodipodi:r2="178.35986"
         sodipodi:r1="155.17308"
         sodipodi:cy="128.70634"
         sodipodi:cx="77.14286"
         sodipodi:sides="10"
         id="path2987-6-3-7-8-8-4-4-3-9-1-3"
         style="fill:none;stroke:#9f9f9f;stroke-width:0.07811579;stroke-linecap:butt;stroke-linejoin:miter;stroke-miterlimit:4;stroke-opacity:1;stroke-dasharray:none"
         sodipodi:type="star" />
      <path
         transform="matrix(1.3783356,0,0,1.3448738,124.22519,50.509482)"
         d="m 195.02548,229.61409 -24.85868,51.27237 -56.96698,-1.25437 -50.248236,26.86865 -45.34996,-34.49915 -56.444673,-7.79798 -16.410792,-54.56644 -41.081166,-39.48604 18.796741,-53.7912 -10.02605,-56.091782 46.824557,-32.469549 24.858677,-51.272368 56.966985,1.254368 50.248234,-26.868654 45.349963,34.499159 56.44467,7.7979728 16.41079,54.5664432 41.08117,39.486039 -18.79674,53.791201 10.02605,56.09178 z"
         inkscape:randomized="0"
         inkscape:rounded="0"
         inkscape:flatsided="false"
         sodipodi:arg2="1.0221274"
         sodipodi:arg1="0.70796817"
         sodipodi:r2="178.35986"
         sodipodi:r1="155.17308"
         sodipodi:cy="128.70634"
         sodipodi:cx="77.14286"
         sodipodi:sides="10"
         id="path2987-6-3-7-8-8-4-4-3-9-1-3-6"
         style="fill:none;stroke:#9f9f9f;stroke-width:0.07811579;stroke-linecap:butt;stroke-linejoin:miter;stroke-miterlimit:4;stroke-opacity:1;stroke-dasharray:none"
         sodipodi:type="star" />
      <path
         transform="matrix(1.4804613,0,0,1.4445201,116.34692,37.684371)"
         d="m 195.02548,229.61409 -24.85868,51.27237 -56.96698,-1.25437 -50.248236,26.86865 -45.34996,-34.49915 -56.444673,-7.79798 -16.410792,-54.56644 -41.081166,-39.48604 18.796741,-53.7912 -10.02605,-56.091782 46.824557,-32.469549 24.858677,-51.272368 56.966985,1.254368 50.248234,-26.868654 45.349963,34.499159 56.44467,7.7979728 16.41079,54.5664432 41.08117,39.486039 -18.79674,53.791201 10.02605,56.09178 z"
         inkscape:randomized="0"
         inkscape:rounded="0"
         inkscape:flatsided="false"
         sodipodi:arg2="1.0221274"
         sodipodi:arg1="0.70796817"
         sodipodi:r2="178.35986"
         sodipodi:r1="155.17308"
         sodipodi:cy="128.70634"
         sodipodi:cx="77.14286"
         sodipodi:sides="10"
         id="path2987-6-3-7-8-8-4-4-3-9-1-3-6-5"
         style="fill:none;stroke:#9f9f9f;stroke-width:0.07811579;stroke-linecap:butt;stroke-linejoin:miter;stroke-miterlimit:4;stroke-opacity:1;stroke-dasharray:none"
         sodipodi:type="star" />
    </g>
  </g>
  <g
     inkscape:groupmode="layer"
     id="layer18"
     inkscape:label="17"
     style="display:inline" />
  <g
     inkscape:groupmode="layer"
     id="layer2"
     inkscape:label="16"
     style="display:inline" />
  <g
     inkscape:groupmode="layer"
     id="layer17"
     inkscape:label="15"
     style="display:inline" />
  <g
     inkscape:groupmode="layer"
     id="layer16"
     inkscape:label="14"
     style="display:inline" />
  <g
     inkscape:groupmode="layer"
     id="layer15"
     inkscape:label="13"
     style="display:inline" />
  <g
     inkscape:groupmode="layer"
     id="layer14"
     inkscape:label="12"
     style="display:inline" />
  <g
     inkscape:groupmode="layer"
     id="layer13"
     inkscape:label="11"
     style="display:inline" />
  <g
     inkscape:groupmode="layer"
     id="layer12"
     inkscape:label="10"
     style="display:inline" />
  <g
     inkscape:groupmode="layer"
     id="layer11"
     inkscape:label="9"
     style="display:inline" />
  <g
     inkscape:groupmode="layer"
     id="layer10"
     inkscape:label="8"
     style="display:inline" />
  <g
     inkscape:groupmode="layer"
     id="layer9"
     inkscape:label="7"
     style="display:inline" />
  <g
     inkscape:groupmode="layer"
     id="layer8"
     inkscape:label="6"
     style="display:inline" />
  <g
     inkscape:groupmode="layer"
     id="layer7"
     inkscape:label="5"
     style="display:inline" />
  <g
     inkscape:groupmode="layer"
     id="layer6"
     inkscape:label="4"
     style="display:inline" />
  <g
     inkscape:groupmode="layer"
     id="layer5"
     inkscape:label="3"
     style="display:inline" />
  <g
     inkscape:groupmode="layer"
     id="layer4"
     inkscape:label="2"
     style="display:inline">
    <g
       id="g4443"
       style="fill:#000000;fill-opacity:0.27777782000000001;stroke:#000000;stroke-width:0.03543307;stroke-miterlimit:4;stroke-opacity:1;stroke-dasharray:none"
       transform="translate(-88.581287,-17.716561)">
      <g
         inkscape:transform-center-y="-124.89787"
         inkscape:transform-center-x="0.20469924"
         transform="matrix(0.99999919,-0.00127346,0.00127346,0.99999919,-550.02205,-15.681095)"
         id="g4368"
         style="fill:#000000;fill-opacity:0.27777782000000001;stroke:#000000;stroke-width:0.03543307;stroke-miterlimit:4;stroke-opacity:1;stroke-dasharray:none;display:inline">
        <path
           id="path3933"
           style="fill:#000000;fill-opacity:0.27777782000000001;fill-rule:evenodd;stroke:#000000;stroke-width:0.03543307;stroke-miterlimit:4;stroke-opacity:1;stroke-dasharray:none"
           d="m 1594.4882,318.89758 c 77.9728,0.004 180.3866,248.03149 0,248.03149 -180.3865,0 -77.9728,-248.0359 0,-248.03149 z m 0,35.43307 c 55.6949,0.002 128.8476,177.16535 0,177.16535 -128.8475,0 -55.6948,-177.1685 0,-177.16535 z"
           inkscape:connector-curvature="0" />
        <path
           style="fill:#000000;fill-opacity:0.27777782000000001;fill-rule:evenodd;stroke:#000000;stroke-width:0.03543307;stroke-miterlimit:4;stroke-opacity:1;stroke-dasharray:none"
           d="m 1551.9685,354.33065 c 0,1.95692 -1.5864,3.54331 -3.5433,3.54331 -1.9569,0 -3.5433,-1.58639 -3.5433,-3.54331 0,-1.95691 1.5864,-3.5433 3.5433,-3.5433 1.9569,0 3.5433,1.58639 3.5433,3.5433 z"
           id="path4182"
           inkscape:connector-curvature="0" />
        <path
           inkscape:connector-curvature="0"
           id="path4196"
           d="m 1686.6142,488.97632 c 0,1.95692 -1.5864,3.54331 -3.5433,3.54331 -1.9569,0 -3.5433,-1.58639 -3.5433,-3.54331 0,-1.95691 1.5864,-3.5433 3.5433,-3.5433 1.9569,0 3.5433,1.58639 3.5433,3.5433 z"
           style="fill:#000000;fill-opacity:0.27777782000000001;fill-rule:evenodd;stroke:#000000;stroke-width:0.03543307;stroke-miterlimit:4;stroke-opacity:1;stroke-dasharray:none" />
      </g>
      <path
         inkscape:connector-curvature="0"
         id="path4191"
         d="m 957.03284,381.56215 c 1.20465,1.54219 0.93102,3.76894 -0.61115,4.97358 -1.54218,1.20464 -3.76893,0.93102 -4.97358,-0.61117 -1.20465,-1.54218 -0.93102,-3.76893 0.61116,-4.97357 1.54217,-1.20464 3.76892,-0.93102 4.97357,0.61116 z"
         style="fill:#000000;fill-opacity:0.27777782000000001;fill-rule:evenodd;stroke:#000000;stroke-width:0.03543307;stroke-miterlimit:4;stroke-opacity:1;stroke-dasharray:none;display:inline" />
      <path
         style="fill:#000000;fill-opacity:0.27777782000000001;fill-rule:evenodd;stroke:#000000;stroke-width:0.03543307;stroke-miterlimit:4;stroke-opacity:1;stroke-dasharray:none;display:inline"
         d="m 1146.029,404.78621 c 1.2047,1.54219 0.9311,3.76894 -0.6111,4.97358 -1.5422,1.20464 -3.7689,0.93102 -4.9736,-0.61117 -1.2046,-1.54218 -0.931,-3.76893 0.6112,-4.97357 1.5421,-1.20464 3.7689,-0.93102 4.9735,0.61116 z"
         id="path4200"
         inkscape:connector-curvature="0" />
      <path
         style="fill:#000000;fill-opacity:0.27777782000000001;fill-rule:evenodd;stroke:#000000;stroke-width:0.03543307;stroke-miterlimit:4;stroke-opacity:1;stroke-dasharray:none;display:inline"
         d="m 1030.7726,274.50361 c 1.2046,1.54219 0.931,3.76894 -0.6112,4.97358 -1.5422,1.20464 -3.7689,0.93103 -4.9736,-0.61116 -1.2046,-1.54218 -0.931,-3.76894 0.6112,-4.97358 1.5422,-1.20464 3.7689,-0.93102 4.9736,0.61116 z"
         id="path4202"
         inkscape:connector-curvature="0" />
      <path
         inkscape:connector-curvature="0"
         id="path4213"
         d="m 1156.8402,522.23448 c 1.2047,1.54218 0.931,3.76894 -0.6111,4.97358 -1.5422,1.20464 -3.769,0.93102 -4.9736,-0.61117 -1.2047,-1.54218 -0.931,-3.76893 0.6112,-4.97357 1.5421,-1.20464 3.7689,-0.93103 4.9735,0.61116 z"
         style="fill:#000000;fill-opacity:0.27777782000000001;fill-rule:evenodd;stroke:#000000;stroke-width:0.03543307;stroke-miterlimit:4;stroke-opacity:1;stroke-dasharray:none;display:inline" />
      <g
         inkscape:transform-center-y="-195.10428"
         inkscape:transform-center-x="0.15521766"
         transform="matrix(0.41585788,-0.90942962,0.90942962,0.41585788,-20.817819,1691.0829)"
         id="g4346"
         style="fill:#000000;fill-opacity:0.27777782000000001;stroke:#000000;stroke-width:0.03543307;stroke-miterlimit:4;stroke-opacity:1;stroke-dasharray:none;display:inline">
        <path
           id="path3939"
           style="fill:#000000;fill-opacity:0.27777782000000001;fill-rule:evenodd;stroke:#000000;stroke-width:0.03543307;stroke-miterlimit:4;stroke-opacity:1;stroke-dasharray:none"
           d="m 1771.6268,361.66762 c 51.0755,111.37582 -236.1016,420.14761 -354.2772,162.49143 -118.1756,-257.65618 303.2016,-273.86723 354.2772,-162.49143 z m -32.207,14.77194 c 41.7888,91.12574 -193.174,343.75715 -289.8632,132.94754 -96.6891,-210.80962 248.0741,-224.07314 289.8632,-132.94754 z"
           inkscape:connector-curvature="0" />
        <path
           inkscape:connector-curvature="0"
           id="path4207"
           d="m 1675.9843,315.35427 c 0,1.95692 -1.5864,3.54331 -3.5433,3.54331 -1.9569,0 -3.5433,-1.58639 -3.5433,-3.54331 0,-1.95691 1.5864,-3.5433 3.5433,-3.5433 1.9569,0 3.5433,1.58639 3.5433,3.5433 z"
           style="fill:#000000;fill-opacity:0.27777782000000001;fill-rule:evenodd;stroke:#000000;stroke-width:0.03543307;stroke-miterlimit:4;stroke-opacity:1;stroke-dasharray:none;display:inline" />
        <path
           style="fill:#000000;fill-opacity:0.27777782000000001;fill-rule:evenodd;stroke:#000000;stroke-width:0.03543307;stroke-miterlimit:4;stroke-opacity:1;stroke-dasharray:none;display:inline"
           d="m 1622.8346,588.18892 c 0,1.95692 -1.5864,3.54331 -3.5433,3.54331 -1.9569,0 -3.5433,-1.58639 -3.5433,-3.54331 0,-1.95691 1.5864,-3.5433 3.5433,-3.5433 1.9569,0 3.5433,1.58639 3.5433,3.5433 z"
           id="path4217"
           inkscape:connector-curvature="0" />
      </g>
      <path
         style="fill:#000000;fill-opacity:0.27777782000000001;fill-rule:evenodd;stroke:#000000;stroke-width:0.03543307;stroke-miterlimit:4;stroke-opacity:1;stroke-dasharray:none;display:inline"
         d="m 1216.4294,514.64815 c 1.9563,0.05 3.5016,1.67649 3.4515,3.63275 -0.05,1.95626 -1.6764,3.50157 -3.6327,3.45154 -1.9563,-0.05 -3.5016,-1.67649 -3.4516,-3.63275 0.05,-1.95626 1.6765,-3.50158 3.6328,-3.45154 z"
         id="path4223"
         inkscape:connector-curvature="0" />
      <path
         inkscape:connector-curvature="0"
         id="path4234"
         d="m 978.99756,235.65106 c 1.95628,0.05 3.50158,1.67648 3.45154,3.63274 -0.05,1.95626 -1.67647,3.50158 -3.63275,3.45154 -1.95627,-0.05 -3.50158,-1.67648 -3.45154,-3.63274 0.05,-1.95626 1.67648,-3.50158 3.63275,-3.45154 z"
         style="fill:#000000;fill-opacity:0.27777782000000001;fill-rule:evenodd;stroke:#000000;stroke-width:0.03543307;stroke-miterlimit:4;stroke-opacity:1;stroke-dasharray:none;display:inline" />
      <g
         inkscape:transform-center-x="0.1985357"
         inkscape:transform-center-y="-265.86166"
         transform="matrix(-0.31916109,-0.94770048,0.94770048,-0.31916109,1134.1556,2077.6549)"
         id="g4322"
         style="fill:#000000;fill-opacity:0.27777782000000001;stroke:#000000;stroke-width:0.03543307;stroke-miterlimit:4;stroke-opacity:1;stroke-dasharray:none;display:inline">
        <path
           id="path3968"
           style="fill:#000000;fill-opacity:0.27777782000000001;fill-rule:evenodd;stroke:#000000;stroke-width:0.03543307;stroke-miterlimit:4;stroke-opacity:1;stroke-dasharray:none"
           d="m 1812.8315,516.20183 c -46.0865,137.27714 -543.288,171.01315 -436.6865,-146.57705 106.6015,-317.590193 482.7732,9.30007 436.6865,146.57705 z m 33.5913,11.27516 c -53.1766,158.39681 -626.8708,197.32284 -503.8691,-169.12737 123.0017,-366.450215 557.046,10.73088 503.8691,169.12737 z"
           inkscape:connector-curvature="0" />
        <path
           inkscape:connector-curvature="0"
           id="path4229"
           d="m 1509.4488,616.53537 c 0,1.95692 -1.5864,3.54331 -3.5433,3.54331 -1.9569,0 -3.5433,-1.58639 -3.5433,-3.54331 0,-1.95691 1.5864,-3.5433 3.5433,-3.5433 1.9569,0 3.5433,1.58639 3.5433,3.5433 z"
           style="fill:#000000;fill-opacity:0.27777782000000001;fill-rule:evenodd;stroke:#000000;stroke-width:0.03543307;stroke-miterlimit:4;stroke-opacity:1;stroke-dasharray:none;display:inline" />
        <path
           style="fill:#000000;fill-opacity:0.27777782000000001;fill-rule:evenodd;stroke:#000000;stroke-width:0.03543307;stroke-miterlimit:4;stroke-opacity:1;stroke-dasharray:none;display:inline"
           d="m 1782.2835,372.04718 c 0,1.95692 -1.5864,3.54331 -3.5433,3.54331 -1.9569,0 -3.5433,-1.58639 -3.5433,-3.54331 0,-1.95691 1.5864,-3.5433 3.5433,-3.5433 1.9569,0 3.5433,1.58639 3.5433,3.5433 z"
           id="path4238"
           inkscape:connector-curvature="0" />
        <path
           inkscape:connector-curvature="0"
           id="path4240"
           d="m 1846.063,492.51962 c 0,1.95692 -1.5864,3.54331 -3.5433,3.54331 -1.9569,0 -3.5433,-1.58639 -3.5433,-3.54331 0,-1.95691 1.5864,-3.5433 3.5433,-3.5433 1.9569,0 3.5433,1.58639 3.5433,3.5433 z"
           style="fill:#000000;fill-opacity:0.27777782000000001;fill-rule:evenodd;stroke:#000000;stroke-width:0.03543307;stroke-miterlimit:4;stroke-opacity:1;stroke-dasharray:none;display:inline" />
        <path
           style="fill:#000000;fill-opacity:0.27777782000000001;fill-rule:evenodd;stroke:#000000;stroke-width:0.03543307;stroke-miterlimit:4;stroke-opacity:1;stroke-dasharray:none;display:inline"
           d="m 1385.4331,574.01569 c 0,1.95692 -1.5864,3.54331 -3.5433,3.54331 -1.9569,0 -3.5433,-1.58639 -3.5433,-3.54331 0,-1.95691 1.5864,-3.5433 3.5433,-3.5433 1.9569,0 3.5433,1.58639 3.5433,3.5433 z"
           id="path4254"
           inkscape:connector-curvature="0" />
      </g>
      <path
         style="fill:#000000;fill-opacity:0.27777782000000001;fill-rule:evenodd;stroke:#000000;stroke-width:0.03543307;stroke-miterlimit:4;stroke-opacity:1;stroke-dasharray:none;display:inline"
         d="m 936.46265,192.87204 c 1.57933,-1.15554 3.79637,-0.81197 4.95189,0.76734 1.15552,1.57932 0.81197,3.79636 -0.76736,4.95189 -1.57932,1.15552 -3.79636,0.81196 -4.95188,-0.76735 -1.15552,-1.57932 -0.81197,-3.79636 0.76735,-4.95188 z"
         id="path4245"
         inkscape:connector-curvature="0" />
      <path
         inkscape:connector-curvature="0"
         id="path4258"
         d="m 1274.2287,516.50081 c 1.5794,-1.15553 3.7964,-0.81196 4.9519,0.76735 1.1555,1.57931 0.812,3.79636 -0.7673,4.95189 -1.5794,1.15552 -3.7964,0.81196 -4.9519,-0.76736 -1.1555,-1.57931 -0.812,-3.79635 0.7673,-4.95188 z"
         style="fill:#000000;fill-opacity:0.27777782000000001;fill-rule:evenodd;stroke:#000000;stroke-width:0.03543307;stroke-miterlimit:4;stroke-opacity:1;stroke-dasharray:none;display:inline" />
      <g
         inkscape:transform-center-y="-337.87558"
         inkscape:transform-center-x="0.26404968"
         transform="matrix(-0.78602832,-0.61819048,0.61819048,-0.78602832,2024.4568,1759.04)"
         id="g4300"
         style="fill:#000000;fill-opacity:0.27777782000000001;stroke:#000000;stroke-width:0.03543307;stroke-miterlimit:4;stroke-opacity:1;stroke-dasharray:none;display:inline">
        <path
           id="path3851"
           style="fill:#000000;fill-opacity:0.27777782000000001;fill-rule:evenodd;stroke:#000000;stroke-width:0.03543307;stroke-miterlimit:4;stroke-opacity:1;stroke-dasharray:none"
           d="m 1780.8418,679.5194 c -148.7687,117.15847 -716.8613,-202.15251 -372.707,-473.21215 344.1542,-271.059635 521.4757,356.05396 372.707,473.21215 z m 21.9239,27.836 c -166.2709,130.9418 -801.1979,-225.93517 -416.5549,-528.88417 384.643,-302.949 582.8258,397.9427 416.5549,528.88417 z"
           inkscape:connector-curvature="0" />
        <path
           inkscape:connector-curvature="0"
           id="path4251"
           d="m 1846.063,492.51962 c 0,1.95692 -1.5864,3.54331 -3.5433,3.54331 -1.9569,0 -3.5433,-1.58639 -3.5433,-3.54331 0,-1.95691 1.5864,-3.5433 3.5433,-3.5433 1.9569,0 3.5433,1.58639 3.5433,3.5433 z"
           style="fill:#000000;fill-opacity:0.27777782000000001;fill-rule:evenodd;stroke:#000000;stroke-width:0.03543307;stroke-miterlimit:4;stroke-opacity:1;stroke-dasharray:none;display:inline" />
        <path
           style="fill:#000000;fill-opacity:0.27777782000000001;fill-rule:evenodd;stroke:#000000;stroke-width:0.03543307;stroke-miterlimit:4;stroke-opacity:1;stroke-dasharray:none;display:inline"
           d="m 1385.4331,574.01569 c 0,1.95692 -1.5864,3.54331 -3.5433,3.54331 -1.9569,0 -3.5433,-1.58639 -3.5433,-3.54331 0,-1.95691 1.5864,-3.5433 3.5433,-3.5433 1.9569,0 3.5433,1.58639 3.5433,3.5433 z"
           id="path4262"
           inkscape:connector-curvature="0" />
        <path
           inkscape:connector-curvature="0"
           id="path4264"
           d="m 1289.7638,453.54325 c 0,1.95692 -1.5864,3.54331 -3.5433,3.54331 -1.9569,0 -3.5433,-1.58639 -3.5433,-3.54331 0,-1.95691 1.5864,-3.5433 3.5433,-3.5433 1.9569,0 3.5433,1.58639 3.5433,3.5433 z"
           style="fill:#000000;fill-opacity:0.27777782000000001;fill-rule:evenodd;stroke:#000000;stroke-width:0.03543307;stroke-miterlimit:4;stroke-opacity:1;stroke-dasharray:none;display:inline" />
        <path
           style="fill:#000000;fill-opacity:0.27777782000000001;fill-rule:evenodd;stroke:#000000;stroke-width:0.03543307;stroke-miterlimit:4;stroke-opacity:1;stroke-dasharray:none;display:inline"
           d="m 1838.9764,634.25191 c 0,1.95692 -1.5864,3.54331 -3.5433,3.54331 -1.9569,0 -3.5433,-1.58639 -3.5433,-3.54331 0,-1.95691 1.5864,-3.5433 3.5433,-3.5433 1.9569,0 3.5433,1.58639 3.5433,3.5433 z"
           id="path4275"
           inkscape:connector-curvature="0" />
      </g>
      <path
         id="path3981"
         d="m 1044.7207,53.149744 c 233.9186,-0.160987 541.713,743.691776 0.5535,744.094316 C 504.11433,797.64663 810.802,53.310509 1044.7203,53.149744 z"
         style="fill:#000000;fill-opacity:0.27777782000000001;fill-rule:evenodd;stroke:#000000;stroke-width:0.03543307;stroke-miterlimit:4;stroke-opacity:1;stroke-dasharray:none"
         inkscape:connector-curvature="0" />
      <path
         style="fill:#000000;fill-opacity:0.27777782000000001;fill-rule:evenodd;stroke:#000000;stroke-width:0.03543307;stroke-miterlimit:4;stroke-opacity:1;stroke-dasharray:none;display:inline"
         d="m 1327.0255,541.86514 c 0.8113,-1.7808 2.9126,-2.5667 4.6934,-1.75536 1.7808,0.81133 2.5667,2.91268 1.7554,4.69348 -0.8114,1.78079 -2.9127,2.56669 -4.6935,1.75535 -1.7808,-0.81133 -2.5667,-2.91268 -1.7553,-4.69347 z"
         id="path4269"
         inkscape:connector-curvature="0" />
      <path
         inkscape:connector-curvature="0"
         id="path4279"
         d="m 902.1627,149.71499 c 0.81134,-1.7808 2.91269,-2.5667 4.69348,-1.75536 1.78078,0.81133 2.56669,2.91268 1.75535,4.69348 -0.81134,1.78079 -2.91269,2.56669 -4.69348,1.75535 -1.78078,-0.81133 -2.56669,-2.91268 -1.75535,-4.69347 z"
         style="fill:#000000;fill-opacity:0.27777782000000001;fill-rule:evenodd;stroke:#000000;stroke-width:0.03543307;stroke-miterlimit:4;stroke-opacity:1;stroke-dasharray:none;display:inline" />
    </g>
  </g>
  <g
     inkscape:groupmode="layer"
     id="layer3"
     inkscape:label="1"
     style="display:inline">
    <g
       style="stroke:#000000;stroke-width:0.03543307;stroke-miterlimit:4;stroke-opacity:1;stroke-dasharray:none;display:inline"
       id="g4373"
       transform="matrix(0.9020654,0.43159936,-0.43159936,0.9020654,-910.66729,-662.47409)"
       inkscape:transform-center-y="-106.29978"
       inkscape:transform-center-x="1.9353323">
      <path
         inkscape:connector-curvature="0"
         id="path4017"
         d="m 1548.5109,347.07173 c 60.2598,-28.90565 231.3606,124.80718 91.9546,191.68322 -139.406,66.876 -152.215,-162.77922 -91.9546,-191.68322 z"
         style="fill:#000000;fill-opacity:0.27843137;fill-rule:evenodd;stroke:#000000;stroke-width:0.03543307;stroke-miterlimit:4;stroke-opacity:1;stroke-dasharray:none;display:inline" />
      <path
         style="fill:#000000;fill-opacity:0.27777782;fill-rule:evenodd;stroke:#000000;stroke-width:0.03543307;stroke-miterlimit:4;stroke-opacity:1;stroke-dasharray:none;display:inline"
         d="m 1551.9685,354.33065 c 0,1.95692 -1.5864,3.54331 -3.5433,3.54331 -1.9569,0 -3.5433,-1.58639 -3.5433,-3.54331 0,-1.95691 1.5864,-3.5433 3.5433,-3.5433 1.9569,0 3.5433,1.58639 3.5433,3.5433 z"
         id="path4185"
         inkscape:connector-curvature="0" />
      <path
         inkscape:connector-curvature="0"
         id="path4194"
         d="m 1686.6142,488.97632 c 0,1.95692 -1.5864,3.54331 -3.5433,3.54331 -1.9569,0 -3.5433,-1.58639 -3.5433,-3.54331 0,-1.95691 1.5864,-3.5433 3.5433,-3.5433 1.9569,0 3.5433,1.58639 3.5433,3.5433 z"
         style="fill:#000000;fill-opacity:0.27777782;fill-rule:evenodd;stroke:#000000;stroke-width:0.03543307;stroke-miterlimit:4;stroke-opacity:1;stroke-dasharray:none;display:inline" />
    </g>
    <path
       inkscape:connector-curvature="0"
       id="path4188"
       d="m 265.04617,356.4081 c 0.68636,1.8326 -0.24286,3.87462 -2.07545,4.56098 -1.83259,0.68635 -3.87461,-0.24286 -4.56097,-2.07547 -0.68636,-1.83259 0.24286,-3.87461 2.07545,-4.56097 1.83259,-0.68635 3.87462,0.24286 4.56097,2.07546 z"
       style="fill:#000000;fill-opacity:0.27777782;fill-rule:evenodd;stroke:#000000;stroke-width:0.03543307;stroke-miterlimit:4;stroke-opacity:1;stroke-dasharray:none;display:inline" />
    <path
       style="fill:#000000;fill-opacity:0.27777782;fill-rule:evenodd;stroke:#000000;stroke-width:0.03543307;stroke-miterlimit:4;stroke-opacity:1;stroke-dasharray:none;display:inline"
       d="m 438.36339,435.27548 c 0.68636,1.83261 -0.24286,3.87463 -2.07545,4.56098 -1.83259,0.68635 -3.87462,-0.24286 -4.56097,-2.07546 -0.68636,-1.8326 0.24286,-3.87462 2.07545,-4.56097 1.83259,-0.68636 3.87461,0.24285 4.56097,2.07545 z"
       id="path4198"
       inkscape:connector-curvature="0" />
    <g
       style="stroke:#000000;stroke-width:0.03543307;stroke-miterlimit:4;stroke-opacity:1;stroke-dasharray:none;display:inline"
       id="g4351"
       transform="matrix(0.61330842,-0.78984351,0.78984351,0.61330842,-991.23544,1412.9512)"
       inkscape:transform-center-y="-177.16522"
       inkscape:transform-center-x="0.34747218">
      <path
         inkscape:connector-curvature="0"
         d="m 1734.3571,334.17397 c 68.3632,87.94379 -121.5715,420.92439 -279.7378,217.47877 -158.1664,-203.44571 211.3747,-305.42283 279.7378,-217.47877 z m -27.9738,21.74788 c 54.6905,70.35517 -97.2571,336.7395 -223.7902,173.983 -126.5332,-162.75658 169.0997,-244.33828 223.7902,-173.983 z"
         style="fill:#000000;fill-opacity:0.27777782;fill-rule:evenodd;stroke:#000000;stroke-width:0.03543307;stroke-miterlimit:4;stroke-opacity:1;stroke-dasharray:none"
         id="path3902" />
      <path
         inkscape:connector-curvature="0"
         id="path4204"
         d="m 1675.9843,315.35427 c 0,1.95692 -1.5864,3.54331 -3.5433,3.54331 -1.9569,0 -3.5433,-1.58639 -3.5433,-3.54331 0,-1.95691 1.5864,-3.5433 3.5433,-3.5433 1.9569,0 3.5433,1.58639 3.5433,3.5433 z"
         style="fill:#000000;fill-opacity:0.27777782;fill-rule:evenodd;stroke:#000000;stroke-width:0.03543307;stroke-miterlimit:4;stroke-opacity:1;stroke-dasharray:none;display:inline" />
      <path
         style="fill:#000000;fill-opacity:0.27777782;fill-rule:evenodd;stroke:#000000;stroke-width:0.03543307;stroke-miterlimit:4;stroke-opacity:1;stroke-dasharray:none;display:inline"
         d="m 1622.8346,588.18892 c 0,1.95692 -1.5864,3.54331 -3.5433,3.54331 -1.9569,0 -3.5433,-1.58639 -3.5433,-3.54331 0,-1.95691 1.5864,-3.5433 3.5433,-3.5433 1.9569,0 3.5433,1.58639 3.5433,3.5433 z"
         id="path4215"
         inkscape:connector-curvature="0" />
    </g>
    <path
       style="fill:#000000;fill-opacity:0.27777782;fill-rule:evenodd;stroke:#000000;stroke-width:0.03543307;stroke-miterlimit:4;stroke-opacity:1;stroke-dasharray:none;display:inline"
       d="m 229.91033,317.86901 c 1.90992,0.42632 3.1126,2.32022 2.68629,4.23011 -0.42632,1.9099 -2.32021,3.1126 -4.23013,2.68628 -1.90991,-0.42632 -3.11259,-2.32022 -2.68627,-4.23012 0.42631,-1.90989 2.3202,-3.11259 4.23011,-2.68627 z"
       id="path4210"
       inkscape:connector-curvature="0" />
    <path
       inkscape:connector-curvature="0"
       id="path4219"
       d="m 484.6131,429.18 c 1.90991,0.42632 3.1126,2.32022 2.68628,4.23012 -0.42631,1.9099 -2.3202,3.11259 -4.23012,2.68627 -1.90991,-0.42632 -3.1126,-2.32021 -2.68628,-4.23011 0.42632,-1.9099 2.32021,-3.1126 4.23012,-2.68628 z"
       style="fill:#000000;fill-opacity:0.27777782;fill-rule:evenodd;stroke:#000000;stroke-width:0.03543307;stroke-miterlimit:4;stroke-opacity:1;stroke-dasharray:none;display:inline" />
    <path
       style="fill:#000000;fill-opacity:0.27777782;fill-rule:evenodd;stroke:#000000;stroke-width:0.03543307;stroke-miterlimit:4;stroke-opacity:1;stroke-dasharray:none;display:inline"
       d="m 487.57726,546.01781 c 1.90992,0.42632 3.11261,2.32022 2.68629,4.23012 -0.42632,1.9099 -2.32021,3.1126 -4.23012,2.68627 -1.90991,-0.42631 -3.1126,-2.32021 -2.68628,-4.23011 0.42632,-1.9099 2.32021,-3.1126 4.23011,-2.68628 z"
       id="path4221"
       inkscape:connector-curvature="0" />
    <path
       inkscape:connector-curvature="0"
       id="path4232"
       d="m 308.39917,226.47367 c 1.90992,0.42632 3.11261,2.32022 2.68629,4.23012 -0.42632,1.9099 -2.32021,3.11259 -4.23012,2.68627 -1.90991,-0.42632 -3.1126,-2.32021 -2.68628,-4.23011 0.42632,-1.9099 2.3202,-3.1126 4.23011,-2.68628 z"
       style="fill:#000000;fill-opacity:0.27777782;fill-rule:evenodd;stroke:#000000;stroke-width:0.03543307;stroke-miterlimit:4;stroke-opacity:1;stroke-dasharray:none;display:inline" />
    <g
       style="stroke:#000000;stroke-width:0.03543307;stroke-miterlimit:4;stroke-opacity:1;stroke-dasharray:none;display:inline"
       id="g4329"
       transform="matrix(-0.15386189,-0.98809237,0.98809237,-0.15386189,144.37191,2068.8865)"
       inkscape:transform-center-y="-248.03342"
       inkscape:transform-center-x="-2.7425">
      <path
         inkscape:connector-curvature="0"
         d="m 1839.5561,481.14079 c -24.0438,154.08101 -545.7394,280.00748 -490.1358,-76.45496 55.6036,-356.462436 514.1794,-77.62598 490.1358,76.45496 z m -35.0097,-5.46107 c -20.6092,132.06935 -467.7766,240.00643 -420.1164,-65.53282 47.6602,-305.53925 440.7252,-66.5365 420.1164,65.53282 z"
         style="fill:#000000;fill-opacity:0.27777782;fill-rule:evenodd;stroke:#000000;stroke-width:0.03543307;stroke-miterlimit:4;stroke-opacity:1;stroke-dasharray:none"
         id="path3908" />
      <path
         inkscape:connector-curvature="0"
         id="path4226"
         d="m 1509.4488,616.53537 c 0,1.95692 -1.5864,3.54331 -3.5433,3.54331 -1.9569,0 -3.5433,-1.58639 -3.5433,-3.54331 0,-1.95691 1.5864,-3.5433 3.5433,-3.5433 1.9569,0 3.5433,1.58639 3.5433,3.5433 z"
         style="fill:#000000;fill-opacity:0.27777782;fill-rule:evenodd;stroke:#000000;stroke-width:0.03543307;stroke-miterlimit:4;stroke-opacity:1;stroke-dasharray:none;display:inline" />
      <path
         style="fill:#000000;fill-opacity:0.27777782;fill-rule:evenodd;stroke:#000000;stroke-width:0.03543307;stroke-miterlimit:4;stroke-opacity:1;stroke-dasharray:none;display:inline"
         d="m 1782.2835,372.04718 c 0,1.95692 -1.5864,3.54331 -3.5433,3.54331 -1.9569,0 -3.5433,-1.58639 -3.5433,-3.54331 0,-1.95691 1.5864,-3.5433 3.5433,-3.5433 1.9569,0 3.5433,1.58639 3.5433,3.5433 z"
         id="path4236"
         inkscape:connector-curvature="0" />
    </g>
    <path
       style="fill:#000000;fill-opacity:0.27777782;fill-rule:evenodd;stroke:#000000;stroke-width:0.03543307;stroke-miterlimit:4;stroke-opacity:1;stroke-dasharray:none;display:inline"
       d="m 264.50341,179.27155 c 1.73508,-0.90501 3.87528,-0.2321 4.78028,1.50297 0.905,1.73506 0.2321,3.87527 -1.50298,4.78027 -1.73507,0.90501 -3.87528,0.23209 -4.78028,-1.50297 -0.90499,-1.73506 -0.23209,-3.87527 1.50298,-4.78027 z"
       id="path4242"
       inkscape:connector-curvature="0" />
    <path
       inkscape:connector-curvature="0"
       id="path4256"
       d="m 549.78572,549.99451 c 1.73508,-0.905 3.87528,-0.23209 4.78028,1.50297 0.905,1.73506 0.2321,3.87528 -1.50298,4.78028 -1.73507,0.905 -3.87528,0.23209 -4.78028,-1.50297 -0.90499,-1.73507 -0.23209,-3.87528 1.50298,-4.78028 z"
       style="fill:#000000;fill-opacity:0.27777782;fill-rule:evenodd;stroke:#000000;stroke-width:0.03543307;stroke-miterlimit:4;stroke-opacity:1;stroke-dasharray:none;display:inline" />
    <g
       style="stroke:#000000;stroke-width:0.03543307;stroke-miterlimit:4;stroke-opacity:1;stroke-dasharray:none;display:inline"
       id="g4307"
       transform="matrix(-0.6984928,-0.71561709,0.71561709,-0.6984928,1133.7561,1875.6388)"
       inkscape:transform-center-y="-318.89637"
       inkscape:transform-center-x="-2.6513027">
      <path
         inkscape:connector-curvature="0"
         d="M 1822.4456,665.91822 C 1682.2269,809.23489 1042.1602,551.48261 1366.531,219.9084 c 324.3707,-331.57421 596.1332,302.69354 455.9146,446.00982 z M 1797.117,641.1399 C 1672.4781,768.53238 1103.53,539.41937 1391.8596,244.68673 1680.1892,-50.045907 1921.7557,513.74762 1797.117,641.1399 z"
         style="fill:#000000;fill-opacity:0.27777782;fill-rule:evenodd;stroke:#000000;stroke-width:0.03543307;stroke-miterlimit:4;stroke-opacity:1;stroke-dasharray:none"
         id="path3915" />
      <path
         inkscape:connector-curvature="0"
         id="path4248"
         d="m 1846.063,492.51962 c 0,1.95692 -1.5864,3.54331 -3.5433,3.54331 -1.9569,0 -3.5433,-1.58639 -3.5433,-3.54331 0,-1.95691 1.5864,-3.5433 3.5433,-3.5433 1.9569,0 3.5433,1.58639 3.5433,3.5433 z"
         style="fill:#000000;fill-opacity:0.27777782;fill-rule:evenodd;stroke:#000000;stroke-width:0.03543307;stroke-miterlimit:4;stroke-opacity:1;stroke-dasharray:none;display:inline" />
      <path
         style="fill:#000000;fill-opacity:0.27777782;fill-rule:evenodd;stroke:#000000;stroke-width:0.03543307;stroke-miterlimit:4;stroke-opacity:1;stroke-dasharray:none;display:inline"
         d="m 1385.4331,574.01569 c 0,1.95692 -1.5864,3.54331 -3.5433,3.54331 -1.9569,0 -3.5433,-1.58639 -3.5433,-3.54331 0,-1.95691 1.5864,-3.5433 3.5433,-3.5433 1.9569,0 3.5433,1.58639 3.5433,3.5433 z"
         id="path4260"
         inkscape:connector-curvature="0" />
    </g>
    <path
       style="fill:#000000;fill-opacity:0.27777782;fill-rule:evenodd;stroke:#000000;stroke-width:0.03543307;stroke-miterlimit:4;stroke-opacity:1;stroke-dasharray:none;display:inline"
       d="m 601.98336,576.01944 c 1.02669,-1.66596 3.20951,-2.1842 4.87546,-1.15752 1.66596,1.02668 2.1842,3.2095 1.15751,4.87547 -1.02668,1.66596 -3.2095,2.18419 -4.87546,1.15751 -1.66595,-1.02667 -2.18419,-3.2095 -1.15751,-4.87546 z"
       id="path4266"
       inkscape:connector-curvature="0" />
    <path
       inkscape:connector-curvature="0"
       id="path4277"
       d="m 229.2346,134.03701 c 1.02669,-1.66596 3.20952,-2.1842 4.87547,-1.15752 1.66595,1.02668 2.1842,3.2095 1.15751,4.87547 -1.02668,1.66596 -3.20951,2.18419 -4.87546,1.15751 -1.66595,-1.02667 -2.1842,-3.2095 -1.15752,-4.87546 z"
       style="fill:#000000;fill-opacity:0.27777782;fill-rule:evenodd;stroke:#000000;stroke-width:0.03543307;stroke-miterlimit:4;stroke-opacity:1;stroke-dasharray:none;display:inline" />
    <g
       style="stroke:#000000;stroke-width:0.03543307;stroke-miterlimit:4;stroke-opacity:1;stroke-dasharray:none"
       id="g4283"
       transform="matrix(-0.95727141,-0.28919103,0.28919103,-0.95727141,1731.4801,1301.6358)"
       inkscape:transform-center-y="-389.76333"
       inkscape:transform-center-x="-0.36216271">
      <path
         inkscape:connector-curvature="0"
         d="M 1700.4952,809.00177 C 1465.8152,879.56029 933.09534,225.76147 1476.0074,62.497599 2018.9195,-100.76633 1935.175,738.44359 1700.4952,809.00177 z m -10.204,-33.93201 C 1476.9458,839.21384 992.65492,244.85131 1486.2113,96.429609 1979.7679,-51.992143 1903.6366,710.92595 1690.2912,775.06976 z"
         style="fill:#000000;fill-opacity:0.27777782000000001;fill-rule:evenodd;stroke:#000000;stroke-width:0.03543307;stroke-miterlimit:4;stroke-opacity:1;stroke-dasharray:none"
         id="path3861"
         inkscape:transform-center-x="0.50387711"
         inkscape:transform-center-y="-390.34917" />
      <path
         inkscape:connector-curvature="0"
         id="path4272"
         d="m 1289.7638,453.54325 c 0,1.95692 -1.5864,3.54331 -3.5433,3.54331 -1.9569,0 -3.5433,-1.58639 -3.5433,-3.54331 0,-1.95691 1.5864,-3.5433 3.5433,-3.5433 1.9569,0 3.5433,1.58639 3.5433,3.5433 z"
         style="fill:#000000;fill-opacity:0.27777782000000001;fill-rule:evenodd;stroke:#000000;stroke-width:0.03543307;stroke-miterlimit:4;stroke-opacity:1;stroke-dasharray:none;display:inline" />
      <path
         style="fill:#000000;fill-opacity:0.27777782000000001;fill-rule:evenodd;stroke:#000000;stroke-width:0.03543307;stroke-miterlimit:4;stroke-opacity:1;stroke-dasharray:none;display:inline"
         d="m 1838.9764,634.25191 c 0,1.95692 -1.5864,3.54331 -3.5433,3.54331 -1.9569,0 -3.5433,-1.58639 -3.5433,-3.54331 0,-1.95691 1.5864,-3.5433 3.5433,-3.5433 1.9569,0 3.5433,1.58639 3.5433,3.5433 z"
         id="path4281"
         inkscape:connector-curvature="0" />
    </g>
  </g>
</svg>
