<?xml version="1.0" encoding="UTF-8" standalone="no"?>
<!-- Created with Inkscape (http://www.inkscape.org/) -->

<svg
   xmlns:dc="http://purl.org/dc/elements/1.1/"
   xmlns:cc="http://creativecommons.org/ns#"
   xmlns:rdf="http://www.w3.org/1999/02/22-rdf-syntax-ns#"
   xmlns:svg="http://www.w3.org/2000/svg"
   xmlns="http://www.w3.org/2000/svg"
   xmlns:sodipodi="http://sodipodi.sourceforge.net/DTD/sodipodi-0.dtd"
   xmlns:inkscape="http://www.inkscape.org/namespaces/inkscape"
   width="1417.3228"
   height="1062.9921"
   id="svg2"
   version="1.1"
   inkscape:version="0.48.4 r9939"
   sodipodi:docname="eierschale2.svg">
  <defs
     id="defs4" />
  <sodipodi:namedview
     id="base"
     pagecolor="#ffffff"
     bordercolor="#666666"
     borderopacity="1.0"
     inkscape:pageopacity="0.0"
     inkscape:pageshadow="2"
     inkscape:zoom="0.65211907"
     inkscape:cx="868.11025"
     inkscape:cy="453.39273"
     inkscape:document-units="mm"
     inkscape:current-layer="layer2"
     showgrid="true"
     units="mm"
     showguides="true"
     inkscape:guide-bbox="true"
     inkscape:window-width="1920"
     inkscape:window-height="1055"
     inkscape:window-x="0"
     inkscape:window-y="0"
     inkscape:window-maximized="1"
     inkscape:snap-center="false"
     inkscape:snap-object-midpoints="true"
     inkscape:object-nodes="true">
    <inkscape:grid
       type="xygrid"
       id="grid2985"
       units="mm"
       empspacing="5"
       visible="true"
       enabled="true"
       snapvisiblegridlinesonly="true"
       dotted="true"
       spacingx="1mm"
       spacingy="1mm" />
  </sodipodi:namedview>
  <metadata
     id="metadata7">
    <rdf:RDF>
      <cc:Work
         rdf:about="">
        <dc:format>image/svg+xml</dc:format>
        <dc:type
           rdf:resource="http://purl.org/dc/dcmitype/StillImage" />
        <dc:title></dc:title>
      </cc:Work>
    </rdf:RDF>
  </metadata>
  <g
     inkscape:label="tom"
     inkscape:groupmode="layer"
     id="layer1"
     transform="translate(0,10.642138)"
     style="display:none"
     sodipodi:insensitive="true">
    <g
       id="g3897"
       transform="translate(29.879137,26.18728)"
       style="stroke:#9f9f9f;stroke-opacity:1">
      <path
         transform="matrix(0.76558189,0,0,0.74699587,171.49476,127.46016)"
         d="m 195.02548,229.61409 -24.85868,51.27237 -56.96698,-1.25437 -50.248236,26.86865 -45.34996,-34.49915 -56.444673,-7.79798 -16.410792,-54.56644 -41.081166,-39.48604 18.796741,-53.7912 -10.02605,-56.091782 46.824557,-32.469549 24.858677,-51.272368 56.966985,1.254368 50.248234,-26.868654 45.349963,34.499159 56.44467,7.7979728 16.41079,54.5664432 41.08117,39.486039 -18.79674,53.791201 10.02605,56.09178 z"
         inkscape:randomized="0"
         inkscape:rounded="0"
         inkscape:flatsided="false"
         sodipodi:arg2="1.0221274"
         sodipodi:arg1="0.70796817"
         sodipodi:r2="178.35986"
         sodipodi:r1="155.17308"
         sodipodi:cy="128.70634"
         sodipodi:cx="77.14286"
         sodipodi:sides="10"
         id="path2987-6-3-7-8"
         style="fill:none;stroke:#9f9f9f;stroke-width:0.05020323;stroke-linecap:butt;stroke-linejoin:miter;stroke-miterlimit:4;stroke-opacity:1;stroke-dasharray:none"
         sodipodi:type="star" />
      <path
         transform="matrix(0.66345628,0,0,0.64734955,179.37302,140.28528)"
         d="m 195.02548,229.61409 -24.85868,51.27237 -56.96698,-1.25437 -50.248236,26.86865 -45.34996,-34.49915 -56.444673,-7.79798 -16.410792,-54.56644 -41.081166,-39.48604 18.796741,-53.7912 -10.02605,-56.091782 46.824557,-32.469549 24.858677,-51.272368 56.966985,1.254368 50.248234,-26.868654 45.349963,34.499159 56.44467,7.7979728 16.41079,54.5664432 41.08117,39.486039 -18.79674,53.791201 10.02605,56.09178 z"
         inkscape:randomized="0"
         inkscape:rounded="0"
         inkscape:flatsided="false"
         sodipodi:arg2="1.0221274"
         sodipodi:arg1="0.70796817"
         sodipodi:r2="178.35986"
         sodipodi:r1="155.17308"
         sodipodi:cy="128.70634"
         sodipodi:cx="77.14286"
         sodipodi:sides="10"
         id="path2987-6-3-7-8-8"
         style="fill:none;stroke:#9f9f9f;stroke-width:0.05857536;stroke-linecap:butt;stroke-linejoin:miter;stroke-miterlimit:4;stroke-opacity:1;stroke-dasharray:none"
         sodipodi:type="star" />
      <path
         transform="matrix(0.56133067,0,0,0.54770327,187.25129,153.11039)"
         d="m 195.02548,229.61409 -24.85868,51.27237 -56.96698,-1.25437 -50.248236,26.86865 -45.34996,-34.49915 -56.444673,-7.79798 -16.410792,-54.56644 -41.081166,-39.48604 18.796741,-53.7912 -10.02605,-56.091782 46.824557,-32.469549 24.858677,-51.272368 56.966985,1.254368 50.248234,-26.868654 45.349963,34.499159 56.44467,7.7979728 16.41079,54.5664432 41.08117,39.486039 -18.79674,53.791201 10.02605,56.09178 z"
         inkscape:randomized="0"
         inkscape:rounded="0"
         inkscape:flatsided="false"
         sodipodi:arg2="1.0221274"
         sodipodi:arg1="0.70796817"
         sodipodi:r2="178.35986"
         sodipodi:r1="155.17308"
         sodipodi:cy="128.70634"
         sodipodi:cx="77.14286"
         sodipodi:sides="10"
         id="path2987-6-3-7-8-8-4"
         style="fill:none;stroke:#9f9f9f;stroke-width:0.06390381;stroke-linecap:butt;stroke-linejoin:miter;stroke-miterlimit:4;stroke-opacity:1;stroke-dasharray:none"
         sodipodi:type="star" />
      <path
         transform="matrix(0.45920508,0,0,0.44805698,195.12955,165.9355)"
         d="m 195.02548,229.61409 -24.85868,51.27237 -56.96698,-1.25437 -50.248236,26.86865 -45.34996,-34.49915 -56.444673,-7.79798 -16.410792,-54.56644 -41.081166,-39.48604 18.796741,-53.7912 -10.02605,-56.091782 46.824557,-32.469549 24.858677,-51.272368 56.966985,1.254368 50.248234,-26.868654 45.349963,34.499159 56.44467,7.7979728 16.41079,54.5664432 41.08117,39.486039 -18.79674,53.791201 10.02605,56.09178 z"
         inkscape:randomized="0"
         inkscape:rounded="0"
         inkscape:flatsided="false"
         sodipodi:arg2="1.0221274"
         sodipodi:arg1="0.70796817"
         sodipodi:r2="178.35986"
         sodipodi:r1="155.17308"
         sodipodi:cy="128.70634"
         sodipodi:cx="77.14286"
         sodipodi:sides="10"
         id="path2987-6-3-7-8-8-4-4"
         style="fill:none;stroke:#9f9f9f;stroke-width:0.07811579;stroke-linecap:butt;stroke-linejoin:miter;stroke-miterlimit:4;stroke-opacity:1;stroke-dasharray:none"
         sodipodi:type="star" />
      <path
         transform="matrix(0.8677075,0,0,0.84664218,163.6165,114.63505)"
         d="m 195.02548,229.61409 -24.85868,51.27237 -56.96698,-1.25437 -50.248236,26.86865 -45.34996,-34.49915 -56.444673,-7.79798 -16.410792,-54.56644 -41.081166,-39.48604 18.796741,-53.7912 -10.02605,-56.091782 46.824557,-32.469549 24.858677,-51.272368 56.966985,1.254368 50.248234,-26.868654 45.349963,34.499159 56.44467,7.7979728 16.41079,54.5664432 41.08117,39.486039 -18.79674,53.791201 10.02605,56.09178 z"
         inkscape:randomized="0"
         inkscape:rounded="0"
         inkscape:flatsided="false"
         sodipodi:arg2="1.0221274"
         sodipodi:arg1="0.70796817"
         sodipodi:r2="178.35986"
         sodipodi:r1="155.17308"
         sodipodi:cy="128.70634"
         sodipodi:cx="77.14286"
         sodipodi:sides="10"
         id="path2987-6-3-7-8-4"
         style="fill:none;stroke:#9f9f9f;stroke-width:0.05020323;stroke-linecap:butt;stroke-linejoin:miter;stroke-miterlimit:4;stroke-opacity:1;stroke-dasharray:none"
         sodipodi:type="star" />
      <path
         transform="matrix(0.969833,0,0,0.94628841,155.73825,101.80995)"
         d="m 195.02548,229.61409 -24.85868,51.27237 -56.96698,-1.25437 -50.248236,26.86865 -45.34996,-34.49915 -56.444673,-7.79798 -16.410792,-54.56644 -41.081166,-39.48604 18.796741,-53.7912 -10.02605,-56.091782 46.824557,-32.469549 24.858677,-51.272368 56.966985,1.254368 50.248234,-26.868654 45.349963,34.499159 56.44467,7.7979728 16.41079,54.5664432 41.08117,39.486039 -18.79674,53.791201 10.02605,56.09178 z"
         inkscape:randomized="0"
         inkscape:rounded="0"
         inkscape:flatsided="false"
         sodipodi:arg2="1.0221274"
         sodipodi:arg1="0.70796817"
         sodipodi:r2="178.35986"
         sodipodi:r1="155.17308"
         sodipodi:cy="128.70634"
         sodipodi:cx="77.14286"
         sodipodi:sides="10"
         id="path2987-6-3-7-8-8-4-4-3"
         style="fill:none;stroke:#9f9f9f;stroke-width:0.07811579;stroke-linecap:butt;stroke-linejoin:miter;stroke-miterlimit:4;stroke-opacity:1;stroke-dasharray:none"
         sodipodi:type="star" />
      <path
         transform="matrix(1.0719588,0,0,1.0459349,147.85997,88.984815)"
         d="m 195.02548,229.61409 -24.85868,51.27237 -56.96698,-1.25437 -50.248236,26.86865 -45.34996,-34.49915 -56.444673,-7.79798 -16.410792,-54.56644 -41.081166,-39.48604 18.796741,-53.7912 -10.02605,-56.091782 46.824557,-32.469549 24.858677,-51.272368 56.966985,1.254368 50.248234,-26.868654 45.349963,34.499159 56.44467,7.7979728 16.41079,54.5664432 41.08117,39.486039 -18.79674,53.791201 10.02605,56.09178 z"
         inkscape:randomized="0"
         inkscape:rounded="0"
         inkscape:flatsided="false"
         sodipodi:arg2="1.0221274"
         sodipodi:arg1="0.70796817"
         sodipodi:r2="178.35986"
         sodipodi:r1="155.17308"
         sodipodi:cy="128.70634"
         sodipodi:cx="77.14286"
         sodipodi:sides="10"
         id="path2987-6-3-7-8-8-4-4-3-9"
         style="fill:none;stroke:#9f9f9f;stroke-width:0.07811579;stroke-linecap:butt;stroke-linejoin:miter;stroke-miterlimit:4;stroke-opacity:1;stroke-dasharray:none"
         sodipodi:type="star" />
      <path
         transform="matrix(1.1740844,0,0,1.1455812,139.98171,76.159704)"
         d="m 195.02548,229.61409 -24.85868,51.27237 -56.96698,-1.25437 -50.248236,26.86865 -45.34996,-34.49915 -56.444673,-7.79798 -16.410792,-54.56644 -41.081166,-39.48604 18.796741,-53.7912 -10.02605,-56.091782 46.824557,-32.469549 24.858677,-51.272368 56.966985,1.254368 50.248234,-26.868654 45.349963,34.499159 56.44467,7.7979728 16.41079,54.5664432 41.08117,39.486039 -18.79674,53.791201 10.02605,56.09178 z"
         inkscape:randomized="0"
         inkscape:rounded="0"
         inkscape:flatsided="false"
         sodipodi:arg2="1.0221274"
         sodipodi:arg1="0.70796817"
         sodipodi:r2="178.35986"
         sodipodi:r1="155.17308"
         sodipodi:cy="128.70634"
         sodipodi:cx="77.14286"
         sodipodi:sides="10"
         id="path2987-6-3-7-8-8-4-4-3-9-1"
         style="fill:none;stroke:#9f9f9f;stroke-width:0.07811579;stroke-linecap:butt;stroke-linejoin:miter;stroke-miterlimit:4;stroke-opacity:1;stroke-dasharray:none"
         sodipodi:type="star" />
      <path
         transform="matrix(1.27621,0,0,1.2452275,132.10345,63.334593)"
         d="m 195.02548,229.61409 -24.85868,51.27237 -56.96698,-1.25437 -50.248236,26.86865 -45.34996,-34.49915 -56.444673,-7.79798 -16.410792,-54.56644 -41.081166,-39.48604 18.796741,-53.7912 -10.02605,-56.091782 46.824557,-32.469549 24.858677,-51.272368 56.966985,1.254368 50.248234,-26.868654 45.349963,34.499159 56.44467,7.7979728 16.41079,54.5664432 41.08117,39.486039 -18.79674,53.791201 10.02605,56.09178 z"
         inkscape:randomized="0"
         inkscape:rounded="0"
         inkscape:flatsided="false"
         sodipodi:arg2="1.0221274"
         sodipodi:arg1="0.70796817"
         sodipodi:r2="178.35986"
         sodipodi:r1="155.17308"
         sodipodi:cy="128.70634"
         sodipodi:cx="77.14286"
         sodipodi:sides="10"
         id="path2987-6-3-7-8-8-4-4-3-9-1-3"
         style="fill:none;stroke:#9f9f9f;stroke-width:0.07811579;stroke-linecap:butt;stroke-linejoin:miter;stroke-miterlimit:4;stroke-opacity:1;stroke-dasharray:none"
         sodipodi:type="star" />
      <path
         transform="matrix(1.3783356,0,0,1.3448738,124.22519,50.509482)"
         d="m 195.02548,229.61409 -24.85868,51.27237 -56.96698,-1.25437 -50.248236,26.86865 -45.34996,-34.49915 -56.444673,-7.79798 -16.410792,-54.56644 -41.081166,-39.48604 18.796741,-53.7912 -10.02605,-56.091782 46.824557,-32.469549 24.858677,-51.272368 56.966985,1.254368 50.248234,-26.868654 45.349963,34.499159 56.44467,7.7979728 16.41079,54.5664432 41.08117,39.486039 -18.79674,53.791201 10.02605,56.09178 z"
         inkscape:randomized="0"
         inkscape:rounded="0"
         inkscape:flatsided="false"
         sodipodi:arg2="1.0221274"
         sodipodi:arg1="0.70796817"
         sodipodi:r2="178.35986"
         sodipodi:r1="155.17308"
         sodipodi:cy="128.70634"
         sodipodi:cx="77.14286"
         sodipodi:sides="10"
         id="path2987-6-3-7-8-8-4-4-3-9-1-3-6"
         style="fill:none;stroke:#9f9f9f;stroke-width:0.07811579;stroke-linecap:butt;stroke-linejoin:miter;stroke-miterlimit:4;stroke-opacity:1;stroke-dasharray:none"
         sodipodi:type="star" />
      <path
         transform="matrix(1.4804613,0,0,1.4445201,116.34692,37.684371)"
         d="m 195.02548,229.61409 -24.85868,51.27237 -56.96698,-1.25437 -50.248236,26.86865 -45.34996,-34.49915 -56.444673,-7.79798 -16.410792,-54.56644 -41.081166,-39.48604 18.796741,-53.7912 -10.02605,-56.091782 46.824557,-32.469549 24.858677,-51.272368 56.966985,1.254368 50.248234,-26.868654 45.349963,34.499159 56.44467,7.7979728 16.41079,54.5664432 41.08117,39.486039 -18.79674,53.791201 10.02605,56.09178 z"
         inkscape:randomized="0"
         inkscape:rounded="0"
         inkscape:flatsided="false"
         sodipodi:arg2="1.0221274"
         sodipodi:arg1="0.70796817"
         sodipodi:r2="178.35986"
         sodipodi:r1="155.17308"
         sodipodi:cy="128.70634"
         sodipodi:cx="77.14286"
         sodipodi:sides="10"
         id="path2987-6-3-7-8-8-4-4-3-9-1-3-6-5"
         style="fill:none;stroke:#9f9f9f;stroke-width:0.07811579;stroke-linecap:butt;stroke-linejoin:miter;stroke-miterlimit:4;stroke-opacity:1;stroke-dasharray:none"
         sodipodi:type="star" />
    </g>
  </g>
  <g
     inkscape:groupmode="layer"
     id="layer2"
     inkscape:label="jw">
    <path
       id="path3954"
       style="fill:#000000;stroke:#9f9f9f;stroke-width:0.06627827999999999;stroke-miterlimit:4;stroke-opacity:1;fill-opacity:0.27777782000000001;fill-rule:evenodd"
       d="m 1009.8425,53.14954 c 233.9187,0.013 541.1596,744.09453 0,744.09453 -541.15965,0 -233.91834,-744.10776 0,-744.09453 z m 0,35.433068 c 211.6407,0.01176 489.6206,673.228382 0,673.228382 -489.62063,0 -211.6404,-673.24035 0,-673.228382 z m 0,35.433072 c 189.3627,0.0105 438.0816,602.36223 0,602.36223 -438.08161,0 -189.36246,-602.37294 0,-602.36223 z m 0,35.43307 c 167.0847,0.009 386.5426,531.49608 0,531.49608 -386.54259,0 -167.08452,-531.50553 0,-531.49608 z" />
    <path
       id="path3968"
       style="fill:#000000;fill-opacity:0.27777782;fill-rule:evenodd;stroke:#9f9f9f;stroke-width:0.04734162;stroke-miterlimit:4;stroke-opacity:1"
       d="m 1009.8425,194.88183 c 144.8067,0.008 335.0036,460.62991 0,460.62991 -335.00358,0 -144.80658,-460.6381 0,-460.62991 z m 0,-35.43307 c 167.0847,0.009 386.5426,531.49608 0,531.49608 -386.54258,0 -167.08448,-531.50553 0,-531.49608 z"
       inkscape:connector-curvature="0" />
    <path
       id="path3939"
       style="fill:#000000;fill-opacity:0.27777782;fill-rule:evenodd;stroke:#9f9f9f;stroke-width:0.03471718;stroke-miterlimit:4;stroke-opacity:1"
       d="m 1009.8425,230.3149 c 122.5287,0.007 283.4646,389.76379 0,389.76379 -283.46458,0 -122.52868,-389.77072 0,-389.76379 z m 0,35.43307 c 100.2507,0.006 231.9256,318.89763 0,318.89763 -231.92558,0 -100.25068,-318.9033 0,-318.89763 z"
       inkscape:connector-curvature="0" />
    <path
       id="path3936"
       style="fill:#000000;fill-opacity:0.27843137;fill-rule:evenodd;stroke:#9f9f9f;stroke-width:0.02840495;stroke-miterlimit:4;stroke-opacity:1"
       d="m 1009.8425,265.74797 c 100.2507,0.006 231.9256,318.89763 0,318.89763 -231.92551,0 -100.25068,-318.9033 0,-318.89763 z m 0,35.43307 c 77.9728,0.004 180.3866,248.03149 0,248.03149 -180.3865,0 -77.97274,-248.0359 0,-248.03149 z"
       inkscape:connector-curvature="0" />
    <path
       id="path3933"
       style="fill:#000000;stroke:#9f9f9f;stroke-width:0.02209274000000000;stroke-miterlimit:4;stroke-opacity:1;fill-opacity:0.27843139000000000;fill-rule:evenodd"
       d="m 1009.8425,301.18103 c 77.9728,0.004 180.3866,248.03149 0,248.03149 -180.38652,0 -77.97276,-248.0359 0,-248.03149 z m 0,35.43307 c 55.6949,0.002 128.8476,177.16535 0,177.16535 -128.8475,0 -55.69482,-177.1685 0,-177.16535 z" />
    <path
       id="path3919"
       style="fill:#000000;stroke:#9f9f9f;stroke-width:0.06312217000000001;stroke-miterlimit:4;stroke-opacity:1;fill-opacity:0.27777782000000001;fill-rule:evenodd"
       d="m 336.61417,70.866082 c 222.77966,0.01238 515.39006,708.661458 0,708.661458 -515.39016,0 -222.77939,-708.674056 0,-708.661458 z m 0,35.433068 c 200.50166,0.0111 463.85106,637.79531 0,637.79531 -463.85114,0 -200.50145,-637.80665 0,-637.79531 z" />
    <path
       id="path3915"
       style="fill:#000000;stroke:#9f9f9f;stroke-width:0.05680995000000000;stroke-miterlimit:4;stroke-opacity:1;fill-opacity:0.27777782000000001;fill-rule:evenodd"
       d="m 336.61417,106.29915 c 200.50166,0.0111 463.85106,637.79531 0,637.79531 -463.85114,0 -200.50145,-637.80665 0,-637.79531 z m 0,35.43307 c 178.22366,0.01 412.31206,566.92916 0,566.92916 -412.31212,0 -178.22351,-566.93923 0,-566.92916 z" />
    <path
       id="path3911"
       style="fill:#000000;stroke:#9f9f9f;stroke-width:0.05049773000000000;stroke-miterlimit:4;stroke-opacity:1;fill-opacity:0.27777782000000001;fill-rule:evenodd"
       d="m 336.61417,141.73222 c 178.22366,0.01 412.31206,566.92916 0,566.92916 -412.31212,0 -178.22351,-566.93923 0,-566.92916 z m 0,35.43308 c 155.94566,0.009 360.77306,496.063 0,496.063 -360.7731,0 -155.94557,-496.07182 0,-496.06301 z" />
    <path
       id="path3908"
       style="fill:#000000;stroke:#9f9f9f;stroke-width:0.04418551000000000;stroke-miterlimit:4;stroke-opacity:1;fill-opacity:0.27777782000000001;fill-rule:evenodd"
       d="m 336.61417,177.1653 c 155.94566,0.009 360.77306,496.063 0,496.063 -360.7731,0 -155.94557,-496.07182 0,-496.06301 z m 0,35.43307 c 133.66766,0.008 309.23406,425.19685 0,425.19685 -309.23408,0 -133.66763,-425.20441 0,-425.19685 z" />
    <path
       id="path3905"
       style="fill:#000000;stroke:#9f9f9f;stroke-width:0.03787329000000000;stroke-miterlimit:4;stroke-opacity:1;fill-opacity:0.27777782000000001;fill-rule:evenodd"
       d="m 336.61417,212.59837 c 133.66766,0.008 309.23406,425.19685 0,425.19685 -309.23408,0 -133.66763,-425.20441 0,-425.19685 z m 0,35.43307 c 111.38968,0.006 257.69506,354.33071 0,354.33071 -257.69506,0 -111.38969,-354.33701 0,-354.33071 z" />
    <path
       id="path3902"
       style="fill:#000000;fill-opacity:0.27777782;fill-rule:evenodd;stroke:#9f9f9f;stroke-width:0.03156107000000000;stroke-miterlimit:4;stroke-opacity:1"
       d="m 336.61417,248.03144 c 111.38968,0.006 257.69506,354.33071 0,354.33071 -257.69506,0 -111.38969,-354.33701 0,-354.33071 z m 0,35.43307 c 89.11174,0.005 206.15606,283.46455 0,283.46455 -206.15604,0 -89.11175,-283.46959 0,-283.46455 z" />
    <path
       id="path3897"
       style="fill:#000000;stroke:#9f9f9f;stroke-width:0.02524884000000000;stroke-miterlimit:4;stroke-opacity:1;fill-opacity:0.27843139;fill-rule:evenodd"
       d="m 336.61417,283.46451 c 89.11174,0.005 206.15606,283.46455 0,283.46455 -206.15604,0 -89.11175,-283.46959 0,-283.46455 z m 0,35.43307 c 66.8338,0.003 154.61706,212.59841 0,212.59841 -154.61703,0 -66.83381,-212.60219 0,-212.59841 z" />
    <path
       id="path3861"
       style="fill:#000000;stroke:#9f9f9f;stroke-width:0.06943439000000000;stroke-miterlimit:4;stroke-opacity:1;fill-opacity:0.27777782000000001;fill-rule:evenodd"
       d="m 336.61417,35.43301 c 245.05766,0.0136 566.92906,779.52761 0,779.52761 -566.92918,0 -245.05733,-779.54147 0,-779.52761 z m 0,35.433072 c 222.77966,0.01238 515.39006,708.661458 0,708.661458 -515.39016,0 -222.77939,-708.674056 0,-708.661458 z" />
    <path
       id="path3851"
       style="fill:#000000;stroke:#9f9f9f;stroke-width:0.05365384000000000;stroke-miterlimit:4;stroke-opacity:1;fill-opacity:0.27777782000000001;fill-rule:evenodd"
       d="m 1009.8425,124.01568 c 189.3627,0.0105 438.0816,602.36223 0,602.36223 -438.08161,0 -189.36246,-602.37294 0,-602.36223 z m 0,-35.433063 c 211.6407,0.01176 489.6206,673.228383 0,673.228383 -489.62061,0 -211.64038,-673.240351 0,-673.228383 z" />
    <path
       id="path3863"
       style="fill:#000000;stroke:#9f9f9f;stroke-width:0.07259050000000000;stroke-miterlimit:4;stroke-opacity:1;fill-opacity:0.27777782000000001;fill-rule:evenodd"
       d="m 1009.8425,17.71647 c 256.1967,0.0142 592.6986,814.96067 0,814.96067 -592.69867,0 -256.19628,-814.97516 0,-814.96067 z m 0,35.43307 c 233.9187,0.013 541.1596,744.09453 0,744.09453 -541.15965,0 -233.91834,-744.10776 0,-744.09453 z" />
    <path
       id="path3963"
       style="fill:#000000;fill-opacity:0.27777782;fill-rule:evenodd;stroke:#9f9f9f;stroke-width:0.03471718000000000;stroke-miterlimit:4;stroke-opacity:1"
       d="m 1009.8425,230.31489 c 122.5287,0.007 283.4646,389.76379 0,389.76379 -283.46455,0 -122.52864,-389.77072 0,-389.76379 z m 0,-35.43307 c 144.8067,0.008 335.0036,460.62993 0,460.62993 -335.00357,0 -144.80658,-460.63812 0,-460.62993 z" />
  </g>
</svg>
