<?xml version="1.0" encoding="UTF-8" standalone="no"?>
<!-- Created with Inkscape (http://www.inkscape.org/) -->

<svg
   xmlns:dc="http://purl.org/dc/elements/1.1/"
   xmlns:cc="http://creativecommons.org/ns#"
   xmlns:rdf="http://www.w3.org/1999/02/22-rdf-syntax-ns#"
   xmlns:svg="http://www.w3.org/2000/svg"
   xmlns="http://www.w3.org/2000/svg"
   xmlns:sodipodi="http://sodipodi.sourceforge.net/DTD/sodipodi-0.dtd"
   xmlns:inkscape="http://www.inkscape.org/namespaces/inkscape"
   width="1417.3228"
   height="1062.9921"
   id="svg2"
   version="1.1"
   inkscape:version="0.48.4 r9939"
   sodipodi:docname="eierschale3flat.svg">
  <defs
     id="defs4" />
  <sodipodi:namedview
     id="base"
     pagecolor="#ffffff"
     bordercolor="#666666"
     borderopacity="1.0"
     inkscape:pageopacity="0.0"
     inkscape:pageshadow="2"
     inkscape:zoom="0.75436461"
     inkscape:cx="855.16247"
     inkscape:cy="639.19358"
     inkscape:document-units="mm"
     inkscape:current-layer="layer3"
     showgrid="true"
     units="mm"
     showguides="true"
     inkscape:guide-bbox="true"
     inkscape:window-width="1920"
     inkscape:window-height="1055"
     inkscape:window-x="0"
     inkscape:window-y="0"
     inkscape:window-maximized="1"
     inkscape:snap-center="false"
     inkscape:snap-object-midpoints="false"
     inkscape:object-nodes="false"
     inkscape:snap-nodes="true"
     inkscape:snap-smooth-nodes="true"
     inkscape:snap-grids="false"
     inkscape:snap-to-guides="false">
    <inkscape:grid
       type="xygrid"
       id="grid2985"
       units="mm"
       empspacing="5"
       visible="true"
       enabled="true"
       snapvisiblegridlinesonly="true"
       dotted="true"
       spacingx="1mm"
       spacingy="1mm" />
    <sodipodi:guide
       orientation="1,0"
       position="336.61417,726.37795"
       id="guide3973" />
    <sodipodi:guide
       orientation="0,1"
       position="-106.29921,637.79528"
       id="guide3975" />
    <sodipodi:guide
       orientation="1,0"
       position="956.69291,637.79528"
       id="guide4293" />
  </sodipodi:namedview>
  <metadata
     id="metadata7">
    <rdf:RDF>
      <cc:Work
         rdf:about="">
        <dc:format>image/svg+xml</dc:format>
        <dc:type
           rdf:resource="http://purl.org/dc/dcmitype/StillImage" />
        <dc:title />
      </cc:Work>
    </rdf:RDF>
  </metadata>
  <g
     inkscape:label="tom"
     inkscape:groupmode="layer"
     id="layer1"
     transform="translate(0,10.642138)"
     style="display:none"
     sodipodi:insensitive="true">
    <g
       id="g3897"
       transform="translate(29.879137,26.18728)"
       style="stroke:#9f9f9f;stroke-opacity:1">
      <path
         transform="matrix(0.76558189,0,0,0.74699587,171.49476,127.46016)"
         d="m 195.02548,229.61409 -24.85868,51.27237 -56.96698,-1.25437 -50.248236,26.86865 -45.34996,-34.49915 -56.444673,-7.79798 -16.410792,-54.56644 -41.081166,-39.48604 18.796741,-53.7912 -10.02605,-56.091782 46.824557,-32.469549 24.858677,-51.272368 56.966985,1.254368 50.248234,-26.868654 45.349963,34.499159 56.44467,7.7979728 16.41079,54.5664432 41.08117,39.486039 -18.79674,53.791201 10.02605,56.09178 z"
         inkscape:randomized="0"
         inkscape:rounded="0"
         inkscape:flatsided="false"
         sodipodi:arg2="1.0221274"
         sodipodi:arg1="0.70796817"
         sodipodi:r2="178.35986"
         sodipodi:r1="155.17308"
         sodipodi:cy="128.70634"
         sodipodi:cx="77.14286"
         sodipodi:sides="10"
         id="path2987-6-3-7-8"
         style="fill:none;stroke:#9f9f9f;stroke-width:0.05020323;stroke-linecap:butt;stroke-linejoin:miter;stroke-miterlimit:4;stroke-opacity:1;stroke-dasharray:none"
         sodipodi:type="star" />
      <path
         transform="matrix(0.66345628,0,0,0.64734955,179.37302,140.28528)"
         d="m 195.02548,229.61409 -24.85868,51.27237 -56.96698,-1.25437 -50.248236,26.86865 -45.34996,-34.49915 -56.444673,-7.79798 -16.410792,-54.56644 -41.081166,-39.48604 18.796741,-53.7912 -10.02605,-56.091782 46.824557,-32.469549 24.858677,-51.272368 56.966985,1.254368 50.248234,-26.868654 45.349963,34.499159 56.44467,7.7979728 16.41079,54.5664432 41.08117,39.486039 -18.79674,53.791201 10.02605,56.09178 z"
         inkscape:randomized="0"
         inkscape:rounded="0"
         inkscape:flatsided="false"
         sodipodi:arg2="1.0221274"
         sodipodi:arg1="0.70796817"
         sodipodi:r2="178.35986"
         sodipodi:r1="155.17308"
         sodipodi:cy="128.70634"
         sodipodi:cx="77.14286"
         sodipodi:sides="10"
         id="path2987-6-3-7-8-8"
         style="fill:none;stroke:#9f9f9f;stroke-width:0.05857536;stroke-linecap:butt;stroke-linejoin:miter;stroke-miterlimit:4;stroke-opacity:1;stroke-dasharray:none"
         sodipodi:type="star" />
      <path
         transform="matrix(0.56133067,0,0,0.54770327,187.25129,153.11039)"
         d="m 195.02548,229.61409 -24.85868,51.27237 -56.96698,-1.25437 -50.248236,26.86865 -45.34996,-34.49915 -56.444673,-7.79798 -16.410792,-54.56644 -41.081166,-39.48604 18.796741,-53.7912 -10.02605,-56.091782 46.824557,-32.469549 24.858677,-51.272368 56.966985,1.254368 50.248234,-26.868654 45.349963,34.499159 56.44467,7.7979728 16.41079,54.5664432 41.08117,39.486039 -18.79674,53.791201 10.02605,56.09178 z"
         inkscape:randomized="0"
         inkscape:rounded="0"
         inkscape:flatsided="false"
         sodipodi:arg2="1.0221274"
         sodipodi:arg1="0.70796817"
         sodipodi:r2="178.35986"
         sodipodi:r1="155.17308"
         sodipodi:cy="128.70634"
         sodipodi:cx="77.14286"
         sodipodi:sides="10"
         id="path2987-6-3-7-8-8-4"
         style="fill:none;stroke:#9f9f9f;stroke-width:0.06390381;stroke-linecap:butt;stroke-linejoin:miter;stroke-miterlimit:4;stroke-opacity:1;stroke-dasharray:none"
         sodipodi:type="star" />
      <path
         transform="matrix(0.45920508,0,0,0.44805698,195.12955,165.9355)"
         d="m 195.02548,229.61409 -24.85868,51.27237 -56.96698,-1.25437 -50.248236,26.86865 -45.34996,-34.49915 -56.444673,-7.79798 -16.410792,-54.56644 -41.081166,-39.48604 18.796741,-53.7912 -10.02605,-56.091782 46.824557,-32.469549 24.858677,-51.272368 56.966985,1.254368 50.248234,-26.868654 45.349963,34.499159 56.44467,7.7979728 16.41079,54.5664432 41.08117,39.486039 -18.79674,53.791201 10.02605,56.09178 z"
         inkscape:randomized="0"
         inkscape:rounded="0"
         inkscape:flatsided="false"
         sodipodi:arg2="1.0221274"
         sodipodi:arg1="0.70796817"
         sodipodi:r2="178.35986"
         sodipodi:r1="155.17308"
         sodipodi:cy="128.70634"
         sodipodi:cx="77.14286"
         sodipodi:sides="10"
         id="path2987-6-3-7-8-8-4-4"
         style="fill:none;stroke:#9f9f9f;stroke-width:0.07811579;stroke-linecap:butt;stroke-linejoin:miter;stroke-miterlimit:4;stroke-opacity:1;stroke-dasharray:none"
         sodipodi:type="star" />
      <path
         transform="matrix(0.8677075,0,0,0.84664218,163.6165,114.63505)"
         d="m 195.02548,229.61409 -24.85868,51.27237 -56.96698,-1.25437 -50.248236,26.86865 -45.34996,-34.49915 -56.444673,-7.79798 -16.410792,-54.56644 -41.081166,-39.48604 18.796741,-53.7912 -10.02605,-56.091782 46.824557,-32.469549 24.858677,-51.272368 56.966985,1.254368 50.248234,-26.868654 45.349963,34.499159 56.44467,7.7979728 16.41079,54.5664432 41.08117,39.486039 -18.79674,53.791201 10.02605,56.09178 z"
         inkscape:randomized="0"
         inkscape:rounded="0"
         inkscape:flatsided="false"
         sodipodi:arg2="1.0221274"
         sodipodi:arg1="0.70796817"
         sodipodi:r2="178.35986"
         sodipodi:r1="155.17308"
         sodipodi:cy="128.70634"
         sodipodi:cx="77.14286"
         sodipodi:sides="10"
         id="path2987-6-3-7-8-4"
         style="fill:none;stroke:#9f9f9f;stroke-width:0.05020323;stroke-linecap:butt;stroke-linejoin:miter;stroke-miterlimit:4;stroke-opacity:1;stroke-dasharray:none"
         sodipodi:type="star" />
      <path
         transform="matrix(0.969833,0,0,0.94628841,155.73825,101.80995)"
         d="m 195.02548,229.61409 -24.85868,51.27237 -56.96698,-1.25437 -50.248236,26.86865 -45.34996,-34.49915 -56.444673,-7.79798 -16.410792,-54.56644 -41.081166,-39.48604 18.796741,-53.7912 -10.02605,-56.091782 46.824557,-32.469549 24.858677,-51.272368 56.966985,1.254368 50.248234,-26.868654 45.349963,34.499159 56.44467,7.7979728 16.41079,54.5664432 41.08117,39.486039 -18.79674,53.791201 10.02605,56.09178 z"
         inkscape:randomized="0"
         inkscape:rounded="0"
         inkscape:flatsided="false"
         sodipodi:arg2="1.0221274"
         sodipodi:arg1="0.70796817"
         sodipodi:r2="178.35986"
         sodipodi:r1="155.17308"
         sodipodi:cy="128.70634"
         sodipodi:cx="77.14286"
         sodipodi:sides="10"
         id="path2987-6-3-7-8-8-4-4-3"
         style="fill:none;stroke:#9f9f9f;stroke-width:0.07811579;stroke-linecap:butt;stroke-linejoin:miter;stroke-miterlimit:4;stroke-opacity:1;stroke-dasharray:none"
         sodipodi:type="star" />
      <path
         transform="matrix(1.0719588,0,0,1.0459349,147.85997,88.984815)"
         d="m 195.02548,229.61409 -24.85868,51.27237 -56.96698,-1.25437 -50.248236,26.86865 -45.34996,-34.49915 -56.444673,-7.79798 -16.410792,-54.56644 -41.081166,-39.48604 18.796741,-53.7912 -10.02605,-56.091782 46.824557,-32.469549 24.858677,-51.272368 56.966985,1.254368 50.248234,-26.868654 45.349963,34.499159 56.44467,7.7979728 16.41079,54.5664432 41.08117,39.486039 -18.79674,53.791201 10.02605,56.09178 z"
         inkscape:randomized="0"
         inkscape:rounded="0"
         inkscape:flatsided="false"
         sodipodi:arg2="1.0221274"
         sodipodi:arg1="0.70796817"
         sodipodi:r2="178.35986"
         sodipodi:r1="155.17308"
         sodipodi:cy="128.70634"
         sodipodi:cx="77.14286"
         sodipodi:sides="10"
         id="path2987-6-3-7-8-8-4-4-3-9"
         style="fill:none;stroke:#9f9f9f;stroke-width:0.07811579;stroke-linecap:butt;stroke-linejoin:miter;stroke-miterlimit:4;stroke-opacity:1;stroke-dasharray:none"
         sodipodi:type="star" />
      <path
         transform="matrix(1.1740844,0,0,1.1455812,139.98171,76.159704)"
         d="m 195.02548,229.61409 -24.85868,51.27237 -56.96698,-1.25437 -50.248236,26.86865 -45.34996,-34.49915 -56.444673,-7.79798 -16.410792,-54.56644 -41.081166,-39.48604 18.796741,-53.7912 -10.02605,-56.091782 46.824557,-32.469549 24.858677,-51.272368 56.966985,1.254368 50.248234,-26.868654 45.349963,34.499159 56.44467,7.7979728 16.41079,54.5664432 41.08117,39.486039 -18.79674,53.791201 10.02605,56.09178 z"
         inkscape:randomized="0"
         inkscape:rounded="0"
         inkscape:flatsided="false"
         sodipodi:arg2="1.0221274"
         sodipodi:arg1="0.70796817"
         sodipodi:r2="178.35986"
         sodipodi:r1="155.17308"
         sodipodi:cy="128.70634"
         sodipodi:cx="77.14286"
         sodipodi:sides="10"
         id="path2987-6-3-7-8-8-4-4-3-9-1"
         style="fill:none;stroke:#9f9f9f;stroke-width:0.07811579;stroke-linecap:butt;stroke-linejoin:miter;stroke-miterlimit:4;stroke-opacity:1;stroke-dasharray:none"
         sodipodi:type="star" />
      <path
         transform="matrix(1.27621,0,0,1.2452275,132.10345,63.334593)"
         d="m 195.02548,229.61409 -24.85868,51.27237 -56.96698,-1.25437 -50.248236,26.86865 -45.34996,-34.49915 -56.444673,-7.79798 -16.410792,-54.56644 -41.081166,-39.48604 18.796741,-53.7912 -10.02605,-56.091782 46.824557,-32.469549 24.858677,-51.272368 56.966985,1.254368 50.248234,-26.868654 45.349963,34.499159 56.44467,7.7979728 16.41079,54.5664432 41.08117,39.486039 -18.79674,53.791201 10.02605,56.09178 z"
         inkscape:randomized="0"
         inkscape:rounded="0"
         inkscape:flatsided="false"
         sodipodi:arg2="1.0221274"
         sodipodi:arg1="0.70796817"
         sodipodi:r2="178.35986"
         sodipodi:r1="155.17308"
         sodipodi:cy="128.70634"
         sodipodi:cx="77.14286"
         sodipodi:sides="10"
         id="path2987-6-3-7-8-8-4-4-3-9-1-3"
         style="fill:none;stroke:#9f9f9f;stroke-width:0.07811579;stroke-linecap:butt;stroke-linejoin:miter;stroke-miterlimit:4;stroke-opacity:1;stroke-dasharray:none"
         sodipodi:type="star" />
      <path
         transform="matrix(1.3783356,0,0,1.3448738,124.22519,50.509482)"
         d="m 195.02548,229.61409 -24.85868,51.27237 -56.96698,-1.25437 -50.248236,26.86865 -45.34996,-34.49915 -56.444673,-7.79798 -16.410792,-54.56644 -41.081166,-39.48604 18.796741,-53.7912 -10.02605,-56.091782 46.824557,-32.469549 24.858677,-51.272368 56.966985,1.254368 50.248234,-26.868654 45.349963,34.499159 56.44467,7.7979728 16.41079,54.5664432 41.08117,39.486039 -18.79674,53.791201 10.02605,56.09178 z"
         inkscape:randomized="0"
         inkscape:rounded="0"
         inkscape:flatsided="false"
         sodipodi:arg2="1.0221274"
         sodipodi:arg1="0.70796817"
         sodipodi:r2="178.35986"
         sodipodi:r1="155.17308"
         sodipodi:cy="128.70634"
         sodipodi:cx="77.14286"
         sodipodi:sides="10"
         id="path2987-6-3-7-8-8-4-4-3-9-1-3-6"
         style="fill:none;stroke:#9f9f9f;stroke-width:0.07811579;stroke-linecap:butt;stroke-linejoin:miter;stroke-miterlimit:4;stroke-opacity:1;stroke-dasharray:none"
         sodipodi:type="star" />
      <path
         transform="matrix(1.4804613,0,0,1.4445201,116.34692,37.684371)"
         d="m 195.02548,229.61409 -24.85868,51.27237 -56.96698,-1.25437 -50.248236,26.86865 -45.34996,-34.49915 -56.444673,-7.79798 -16.410792,-54.56644 -41.081166,-39.48604 18.796741,-53.7912 -10.02605,-56.091782 46.824557,-32.469549 24.858677,-51.272368 56.966985,1.254368 50.248234,-26.868654 45.349963,34.499159 56.44467,7.7979728 16.41079,54.5664432 41.08117,39.486039 -18.79674,53.791201 10.02605,56.09178 z"
         inkscape:randomized="0"
         inkscape:rounded="0"
         inkscape:flatsided="false"
         sodipodi:arg2="1.0221274"
         sodipodi:arg1="0.70796817"
         sodipodi:r2="178.35986"
         sodipodi:r1="155.17308"
         sodipodi:cy="128.70634"
         sodipodi:cx="77.14286"
         sodipodi:sides="10"
         id="path2987-6-3-7-8-8-4-4-3-9-1-3-6-5"
         style="fill:none;stroke:#9f9f9f;stroke-width:0.07811579;stroke-linecap:butt;stroke-linejoin:miter;stroke-miterlimit:4;stroke-opacity:1;stroke-dasharray:none"
         sodipodi:type="star" />
    </g>
  </g>
  <g
     inkscape:groupmode="layer"
     id="layer18"
     inkscape:label="17"
     style="display:inline" />
  <g
     inkscape:groupmode="layer"
     id="layer2"
     inkscape:label="16"
     style="display:inline" />
  <g
     inkscape:groupmode="layer"
     id="layer17"
     inkscape:label="15"
     style="display:inline" />
  <g
     inkscape:groupmode="layer"
     id="layer16"
     inkscape:label="14"
     style="display:inline" />
  <g
     inkscape:groupmode="layer"
     id="layer15"
     inkscape:label="13"
     style="display:inline" />
  <g
     inkscape:groupmode="layer"
     id="layer14"
     inkscape:label="12"
     style="display:inline" />
  <g
     inkscape:groupmode="layer"
     id="layer13"
     inkscape:label="11"
     style="display:inline" />
  <g
     inkscape:groupmode="layer"
     id="layer12"
     inkscape:label="10"
     style="display:inline" />
  <g
     inkscape:groupmode="layer"
     id="layer11"
     inkscape:label="9"
     style="display:inline" />
  <g
     inkscape:groupmode="layer"
     id="layer10"
     inkscape:label="8"
     style="display:inline" />
  <g
     inkscape:groupmode="layer"
     id="layer9"
     inkscape:label="7"
     style="display:inline" />
  <g
     inkscape:groupmode="layer"
     id="layer8"
     inkscape:label="6"
     style="display:inline" />
  <g
     inkscape:groupmode="layer"
     id="layer7"
     inkscape:label="5"
     style="display:inline" />
  <g
     inkscape:groupmode="layer"
     id="layer6"
     inkscape:label="4"
     style="display:inline" />
  <g
     inkscape:groupmode="layer"
     id="layer5"
     inkscape:label="3"
     style="display:inline" />
  <g
     inkscape:groupmode="layer"
     id="layer4"
     inkscape:label="2"
     style="display:inline">
    <g
       id="g4443"
       style="fill:none;fill-opacity:1;stroke:#000000;stroke-width:0.03543307;stroke-miterlimit:4;stroke-opacity:1;stroke-dasharray:none"
       transform="translate(-88.581287,-17.716561)">
      <g
         inkscape:transform-center-y="-124.89787"
         inkscape:transform-center-x="0.20469924"
         transform="matrix(0.99999919,-0.00127346,0.00127346,0.99999919,-550.02205,-15.681095)"
         id="g4368"
         style="fill:none;fill-opacity:1;stroke:#000000;stroke-width:0.03543307;stroke-miterlimit:4;stroke-opacity:1;stroke-dasharray:none;display:inline">
        <path
           id="path3933"
           style="fill:none;fill-opacity:1;fill-rule:evenodd;stroke:#000000;stroke-width:0.03543307;stroke-miterlimit:4;stroke-opacity:1;stroke-dasharray:none"
           d="m 1594.4882,318.89758 c 77.9728,0.004 180.3866,248.03149 0,248.03149 -180.3865,0 -77.9728,-248.0359 0,-248.03149 z m 0,35.43307 c 55.6949,0.002 128.8476,177.16535 0,177.16535 -128.8475,0 -55.6948,-177.1685 0,-177.16535 z"
           inkscape:connector-curvature="0" />
        <path
           style="fill:none;fill-opacity:1;fill-rule:evenodd;stroke:#000000;stroke-width:0.03543307;stroke-miterlimit:4;stroke-opacity:1;stroke-dasharray:none"
           d="m 1551.9685,354.33065 c 0,1.95692 -1.5864,3.54331 -3.5433,3.54331 -1.9569,0 -3.5433,-1.58639 -3.5433,-3.54331 0,-1.95691 1.5864,-3.5433 3.5433,-3.5433 1.9569,0 3.5433,1.58639 3.5433,3.5433 z"
           id="path4182"
           inkscape:connector-curvature="0" />
        <path
           inkscape:connector-curvature="0"
           id="path4196"
           d="m 1686.6142,488.97632 c 0,1.95692 -1.5864,3.54331 -3.5433,3.54331 -1.9569,0 -3.5433,-1.58639 -3.5433,-3.54331 0,-1.95691 1.5864,-3.5433 3.5433,-3.5433 1.9569,0 3.5433,1.58639 3.5433,3.5433 z"
           style="fill:none;fill-opacity:1;fill-rule:evenodd;stroke:#000000;stroke-width:0.03543307;stroke-miterlimit:4;stroke-opacity:1;stroke-dasharray:none" />
      </g>
      <path
         inkscape:connector-curvature="0"
         id="path4191"
         d="m 957.03284,381.56215 c 1.20465,1.54219 0.93102,3.76894 -0.61115,4.97358 -1.54218,1.20464 -3.76893,0.93102 -4.97358,-0.61117 -1.20465,-1.54218 -0.93102,-3.76893 0.61116,-4.97357 1.54217,-1.20464 3.76892,-0.93102 4.97357,0.61116 z"
         style="fill:none;fill-opacity:1;fill-rule:evenodd;stroke:#000000;stroke-width:0.03543307;stroke-miterlimit:4;stroke-opacity:1;stroke-dasharray:none;display:inline" />
      <path
         style="fill:none;fill-opacity:1;fill-rule:evenodd;stroke:#000000;stroke-width:0.03543307;stroke-miterlimit:4;stroke-opacity:1;stroke-dasharray:none;display:inline"
         d="m 1146.029,404.78621 c 1.2047,1.54219 0.9311,3.76894 -0.6111,4.97358 -1.5422,1.20464 -3.7689,0.93102 -4.9736,-0.61117 -1.2046,-1.54218 -0.931,-3.76893 0.6112,-4.97357 1.5421,-1.20464 3.7689,-0.93102 4.9735,0.61116 z"
         id="path4200"
         inkscape:connector-curvature="0" />
      <path
         style="fill:none;fill-opacity:1;fill-rule:evenodd;stroke:#000000;stroke-width:0.03543307;stroke-miterlimit:4;stroke-opacity:1;stroke-dasharray:none;display:inline"
         d="m 1030.7726,274.50361 c 1.2046,1.54219 0.931,3.76894 -0.6112,4.97358 -1.5422,1.20464 -3.7689,0.93103 -4.9736,-0.61116 -1.2046,-1.54218 -0.931,-3.76894 0.6112,-4.97358 1.5422,-1.20464 3.7689,-0.93102 4.9736,0.61116 z"
         id="path4202"
         inkscape:connector-curvature="0" />
      <path
         inkscape:connector-curvature="0"
         id="path4213"
         d="m 1156.8402,522.23448 c 1.2047,1.54218 0.931,3.76894 -0.6111,4.97358 -1.5422,1.20464 -3.769,0.93102 -4.9736,-0.61117 -1.2047,-1.54218 -0.931,-3.76893 0.6112,-4.97357 1.5421,-1.20464 3.7689,-0.93103 4.9735,0.61116 z"
         style="fill:none;fill-opacity:1;fill-rule:evenodd;stroke:#000000;stroke-width:0.03543307;stroke-miterlimit:4;stroke-opacity:1;stroke-dasharray:none;display:inline" />
      <g
         inkscape:transform-center-y="-195.10428"
         inkscape:transform-center-x="0.15521766"
         transform="matrix(0.41585788,-0.90942962,0.90942962,0.41585788,-20.817819,1691.0829)"
         id="g4346"
         style="fill:none;fill-opacity:1;stroke:#000000;stroke-width:0.03543307;stroke-miterlimit:4;stroke-opacity:1;stroke-dasharray:none;display:inline">
        <path
           id="path3939"
           style="fill:none;fill-opacity:1;fill-rule:evenodd;stroke:#000000;stroke-width:0.03543307;stroke-miterlimit:4;stroke-opacity:1;stroke-dasharray:none"
           d="m 1771.6268,361.66762 c 51.0755,111.37582 -236.1016,420.14761 -354.2772,162.49143 -118.1756,-257.65618 303.2016,-273.86723 354.2772,-162.49143 z m -32.207,14.77194 c 41.7888,91.12574 -193.174,343.75715 -289.8632,132.94754 -96.6891,-210.80962 248.0741,-224.07314 289.8632,-132.94754 z"
           inkscape:connector-curvature="0" />
        <path
           inkscape:connector-curvature="0"
           id="path4207"
           d="m 1675.9843,315.35427 c 0,1.95692 -1.5864,3.54331 -3.5433,3.54331 -1.9569,0 -3.5433,-1.58639 -3.5433,-3.54331 0,-1.95691 1.5864,-3.5433 3.5433,-3.5433 1.9569,0 3.5433,1.58639 3.5433,3.5433 z"
           style="fill:none;fill-opacity:1;fill-rule:evenodd;stroke:#000000;stroke-width:0.03543307;stroke-miterlimit:4;stroke-opacity:1;stroke-dasharray:none;display:inline" />
        <path
           style="fill:none;fill-opacity:1;fill-rule:evenodd;stroke:#000000;stroke-width:0.03543307;stroke-miterlimit:4;stroke-opacity:1;stroke-dasharray:none;display:inline"
           d="m 1622.8346,588.18892 c 0,1.95692 -1.5864,3.54331 -3.5433,3.54331 -1.9569,0 -3.5433,-1.58639 -3.5433,-3.54331 0,-1.95691 1.5864,-3.5433 3.5433,-3.5433 1.9569,0 3.5433,1.58639 3.5433,3.5433 z"
           id="path4217"
           inkscape:connector-curvature="0" />
      </g>
      <path
         style="fill:none;fill-opacity:1;fill-rule:evenodd;stroke:#000000;stroke-width:0.03543307;stroke-miterlimit:4;stroke-opacity:1;stroke-dasharray:none;display:inline"
         d="m 1216.4294,514.64815 c 1.9563,0.05 3.5016,1.67649 3.4515,3.63275 -0.05,1.95626 -1.6764,3.50157 -3.6327,3.45154 -1.9563,-0.05 -3.5016,-1.67649 -3.4516,-3.63275 0.05,-1.95626 1.6765,-3.50158 3.6328,-3.45154 z"
         id="path4223"
         inkscape:connector-curvature="0" />
      <path
         inkscape:connector-curvature="0"
         id="path4234"
         d="m 978.99756,235.65106 c 1.95628,0.05 3.50158,1.67648 3.45154,3.63274 -0.05,1.95626 -1.67647,3.50158 -3.63275,3.45154 -1.95627,-0.05 -3.50158,-1.67648 -3.45154,-3.63274 0.05,-1.95626 1.67648,-3.50158 3.63275,-3.45154 z"
         style="fill:none;fill-opacity:1;fill-rule:evenodd;stroke:#000000;stroke-width:0.03543307;stroke-miterlimit:4;stroke-opacity:1;stroke-dasharray:none;display:inline" />
      <g
         inkscape:transform-center-x="0.1985357"
         inkscape:transform-center-y="-265.86166"
         transform="matrix(-0.31916109,-0.94770048,0.94770048,-0.31916109,1134.1556,2077.6549)"
         id="g4322"
         style="fill:none;fill-opacity:1;stroke:#000000;stroke-width:0.03543307;stroke-miterlimit:4;stroke-opacity:1;stroke-dasharray:none;display:inline">
        <path
           id="path3968"
           style="fill:none;fill-opacity:1;fill-rule:evenodd;stroke:#000000;stroke-width:0.03543307;stroke-miterlimit:4;stroke-opacity:1;stroke-dasharray:none"
           d="m 1812.8315,516.20183 c -46.0865,137.27714 -543.288,171.01315 -436.6865,-146.57705 106.6015,-317.590193 482.7732,9.30007 436.6865,146.57705 z m 33.5913,11.27516 c -53.1766,158.39681 -626.8708,197.32284 -503.8691,-169.12737 123.0017,-366.450215 557.046,10.73088 503.8691,169.12737 z"
           inkscape:connector-curvature="0" />
        <path
           inkscape:connector-curvature="0"
           id="path4229"
           d="m 1509.4488,616.53537 c 0,1.95692 -1.5864,3.54331 -3.5433,3.54331 -1.9569,0 -3.5433,-1.58639 -3.5433,-3.54331 0,-1.95691 1.5864,-3.5433 3.5433,-3.5433 1.9569,0 3.5433,1.58639 3.5433,3.5433 z"
           style="fill:none;fill-opacity:1;fill-rule:evenodd;stroke:#000000;stroke-width:0.03543307;stroke-miterlimit:4;stroke-opacity:1;stroke-dasharray:none;display:inline" />
        <path
           style="fill:none;fill-opacity:1;fill-rule:evenodd;stroke:#000000;stroke-width:0.03543307;stroke-miterlimit:4;stroke-opacity:1;stroke-dasharray:none;display:inline"
           d="m 1782.2835,372.04718 c 0,1.95692 -1.5864,3.54331 -3.5433,3.54331 -1.9569,0 -3.5433,-1.58639 -3.5433,-3.54331 0,-1.95691 1.5864,-3.5433 3.5433,-3.5433 1.9569,0 3.5433,1.58639 3.5433,3.5433 z"
           id="path4238"
           inkscape:connector-curvature="0" />
        <path
           inkscape:connector-curvature="0"
           id="path4240"
           d="m 1846.063,492.51962 c 0,1.95692 -1.5864,3.54331 -3.5433,3.54331 -1.9569,0 -3.5433,-1.58639 -3.5433,-3.54331 0,-1.95691 1.5864,-3.5433 3.5433,-3.5433 1.9569,0 3.5433,1.58639 3.5433,3.5433 z"
           style="fill:none;fill-opacity:1;fill-rule:evenodd;stroke:#000000;stroke-width:0.03543307;stroke-miterlimit:4;stroke-opacity:1;stroke-dasharray:none;display:inline" />
        <path
           style="fill:none;fill-opacity:1;fill-rule:evenodd;stroke:#000000;stroke-width:0.03543307;stroke-miterlimit:4;stroke-opacity:1;stroke-dasharray:none;display:inline"
           d="m 1385.4331,574.01569 c 0,1.95692 -1.5864,3.54331 -3.5433,3.54331 -1.9569,0 -3.5433,-1.58639 -3.5433,-3.54331 0,-1.95691 1.5864,-3.5433 3.5433,-3.5433 1.9569,0 3.5433,1.58639 3.5433,3.5433 z"
           id="path4254"
           inkscape:connector-curvature="0" />
      </g>
      <path
         style="fill:none;fill-opacity:1;fill-rule:evenodd;stroke:#000000;stroke-width:0.03543307;stroke-miterlimit:4;stroke-opacity:1;stroke-dasharray:none;display:inline"
         d="m 936.46265,192.87204 c 1.57933,-1.15554 3.79637,-0.81197 4.95189,0.76734 1.15552,1.57932 0.81197,3.79636 -0.76736,4.95189 -1.57932,1.15552 -3.79636,0.81196 -4.95188,-0.76735 -1.15552,-1.57932 -0.81197,-3.79636 0.76735,-4.95188 z"
         id="path4245"
         inkscape:connector-curvature="0" />
      <path
         inkscape:connector-curvature="0"
         id="path4258"
         d="m 1274.2287,516.50081 c 1.5794,-1.15553 3.7964,-0.81196 4.9519,0.76735 1.1555,1.57931 0.812,3.79636 -0.7673,4.95189 -1.5794,1.15552 -3.7964,0.81196 -4.9519,-0.76736 -1.1555,-1.57931 -0.812,-3.79635 0.7673,-4.95188 z"
         style="fill:none;fill-opacity:1;fill-rule:evenodd;stroke:#000000;stroke-width:0.03543307;stroke-miterlimit:4;stroke-opacity:1;stroke-dasharray:none;display:inline" />
      <g
         inkscape:transform-center-y="-337.87558"
         inkscape:transform-center-x="0.26404968"
         transform="matrix(-0.78602832,-0.61819048,0.61819048,-0.78602832,2024.4568,1759.04)"
         id="g4300"
         style="fill:none;fill-opacity:1;stroke:#000000;stroke-width:0.03543307;stroke-miterlimit:4;stroke-opacity:1;stroke-dasharray:none;display:inline">
        <path
           id="path3851"
           style="fill:none;fill-opacity:1;fill-rule:evenodd;stroke:#000000;stroke-width:0.03543307;stroke-miterlimit:4;stroke-opacity:1;stroke-dasharray:none"
           d="m 1780.8418,679.5194 c -148.7687,117.15847 -716.8613,-202.15251 -372.707,-473.21215 344.1542,-271.059635 521.4757,356.05396 372.707,473.21215 z m 21.9239,27.836 c -166.2709,130.9418 -801.1979,-225.93517 -416.5549,-528.88417 384.643,-302.949 582.8258,397.9427 416.5549,528.88417 z"
           inkscape:connector-curvature="0" />
        <path
           inkscape:connector-curvature="0"
           id="path4251"
           d="m 1846.063,492.51962 c 0,1.95692 -1.5864,3.54331 -3.5433,3.54331 -1.9569,0 -3.5433,-1.58639 -3.5433,-3.54331 0,-1.95691 1.5864,-3.5433 3.5433,-3.5433 1.9569,0 3.5433,1.58639 3.5433,3.5433 z"
           style="fill:none;fill-opacity:1;fill-rule:evenodd;stroke:#000000;stroke-width:0.03543307;stroke-miterlimit:4;stroke-opacity:1;stroke-dasharray:none;display:inline" />
        <path
           style="fill:none;fill-opacity:1;fill-rule:evenodd;stroke:#000000;stroke-width:0.03543307;stroke-miterlimit:4;stroke-opacity:1;stroke-dasharray:none;display:inline"
           d="m 1385.4331,574.01569 c 0,1.95692 -1.5864,3.54331 -3.5433,3.54331 -1.9569,0 -3.5433,-1.58639 -3.5433,-3.54331 0,-1.95691 1.5864,-3.5433 3.5433,-3.5433 1.9569,0 3.5433,1.58639 3.5433,3.5433 z"
           id="path4262"
           inkscape:connector-curvature="0" />
        <path
           inkscape:connector-curvature="0"
           id="path4264"
           d="m 1289.7638,453.54325 c 0,1.95692 -1.5864,3.54331 -3.5433,3.54331 -1.9569,0 -3.5433,-1.58639 -3.5433,-3.54331 0,-1.95691 1.5864,-3.5433 3.5433,-3.5433 1.9569,0 3.5433,1.58639 3.5433,3.5433 z"
           style="fill:none;fill-opacity:1;fill-rule:evenodd;stroke:#000000;stroke-width:0.03543307;stroke-miterlimit:4;stroke-opacity:1;stroke-dasharray:none;display:inline" />
        <path
           style="fill:none;fill-opacity:1;fill-rule:evenodd;stroke:#000000;stroke-width:0.03543307;stroke-miterlimit:4;stroke-opacity:1;stroke-dasharray:none;display:inline"
           d="m 1838.9764,634.25191 c 0,1.95692 -1.5864,3.54331 -3.5433,3.54331 -1.9569,0 -3.5433,-1.58639 -3.5433,-3.54331 0,-1.95691 1.5864,-3.5433 3.5433,-3.5433 1.9569,0 3.5433,1.58639 3.5433,3.5433 z"
           id="path4275"
           inkscape:connector-curvature="0" />
      </g>
      <path
         id="path3981"
         d="m 1044.7207,53.149744 c 233.9186,-0.160987 541.713,743.691776 0.5535,744.094316 C 504.11433,797.64663 810.802,53.310509 1044.7203,53.149744 z"
         style="fill:none;fill-opacity:1;fill-rule:evenodd;stroke:#000000;stroke-width:0.03543307;stroke-miterlimit:4;stroke-opacity:1;stroke-dasharray:none"
         inkscape:connector-curvature="0" />
      <path
         style="fill:none;fill-opacity:1;fill-rule:evenodd;stroke:#000000;stroke-width:0.03543307;stroke-miterlimit:4;stroke-opacity:1;stroke-dasharray:none;display:inline"
         d="m 1327.0255,541.86514 c 0.8113,-1.7808 2.9126,-2.5667 4.6934,-1.75536 1.7808,0.81133 2.5667,2.91268 1.7554,4.69348 -0.8114,1.78079 -2.9127,2.56669 -4.6935,1.75535 -1.7808,-0.81133 -2.5667,-2.91268 -1.7553,-4.69347 z"
         id="path4269"
         inkscape:connector-curvature="0" />
      <path
         inkscape:connector-curvature="0"
         id="path4279"
         d="m 902.1627,149.71499 c 0.81134,-1.7808 2.91269,-2.5667 4.69348,-1.75536 1.78078,0.81133 2.56669,2.91268 1.75535,4.69348 -0.81134,1.78079 -2.91269,2.56669 -4.69348,1.75535 -1.78078,-0.81133 -2.56669,-2.91268 -1.75535,-4.69347 z"
         style="fill:none;fill-opacity:1;fill-rule:evenodd;stroke:#000000;stroke-width:0.03543307;stroke-miterlimit:4;stroke-opacity:1;stroke-dasharray:none;display:inline" />
    </g>
  </g>
  <g
     inkscape:groupmode="layer"
     id="layer3"
     inkscape:label="1"
     style="display:inline">
    <g
       id="g3131">
      <path
         inkscape:connector-curvature="0"
         id="path4017"
         d="m 336.39488,318.94362 c 66.83394,-0.0667 154.83569,212.43933 0.21871,212.59835 -154.61697,0.15898 -67.05248,-212.5334 -0.21871,-212.59835 z"
         style="fill:none;stroke:#000000;stroke-width:0.03543307;stroke-miterlimit:4;stroke-opacity:1;stroke-dasharray:none;display:inline" />
      <path
         style="fill:none;stroke:#000000;stroke-width:0.03543307;stroke-miterlimit:4;stroke-opacity:1;stroke-dasharray:none;display:inline"
         d="m 336.38091,326.98394 c -0.8446,1.76527 -2.96032,2.51161 -4.72557,1.66701 -1.76526,-0.84459 -2.51161,-2.96031 -1.667,-4.72558 0.8446,-1.76526 2.96032,-2.5116 4.72557,-1.667 1.76525,0.84459 2.51161,2.96031 1.667,4.72557 z"
         id="path4185"
         inkscape:connector-curvature="0" />
      <path
         inkscape:connector-curvature="0"
         id="path4194"
         d="m 399.72716,506.55614 c -0.84461,1.76527 -2.96033,2.51161 -4.72558,1.66701 -1.76525,-0.8446 -2.51161,-2.96031 -1.667,-4.72558 0.8446,-1.76526 2.96032,-2.5116 4.72557,-1.66701 1.76526,0.8446 2.51161,2.96032 1.66701,4.72558 z"
         style="fill:none;stroke:#000000;stroke-width:0.03543307;stroke-miterlimit:4;stroke-opacity:1;stroke-dasharray:none;display:inline" />
      <path
         style="fill:none;stroke:#000000;stroke-width:0.03543307;stroke-miterlimit:4;stroke-opacity:1;stroke-dasharray:none;display:inline"
         d="m 265.04617,356.4081 c 0.68636,1.8326 -0.24286,3.87462 -2.07545,4.56098 -1.83259,0.68635 -3.87461,-0.24286 -4.56097,-2.07547 -0.68636,-1.83259 0.24286,-3.87461 2.07545,-4.56097 1.83259,-0.68635 3.87462,0.24286 4.56097,2.07546 z"
         id="path4188"
         inkscape:connector-curvature="0" />
      <path
         inkscape:connector-curvature="0"
         id="path4198"
         d="m 438.36339,435.27548 c 0.68636,1.83261 -0.24286,3.87463 -2.07545,4.56098 -1.83259,0.68635 -3.87462,-0.24286 -4.56097,-2.07546 -0.68636,-1.8326 0.24286,-3.87462 2.07545,-4.56097 1.83259,-0.68636 3.87461,0.24285 4.56097,2.07545 z"
         style="fill:none;stroke:#000000;stroke-width:0.03543307;stroke-miterlimit:4;stroke-opacity:1;stroke-dasharray:none;display:inline" />
      <path
         inkscape:connector-curvature="0"
         d="m 336.40551,248.03221 c 111.38956,-0.0596 257.90358,354.17893 0.20865,354.33065 C 78.919102,602.51459 225.0158,248.09153 336.40551,248.03221 z m 0.0209,35.43308 c 89.11172,-0.0475 206.32291,283.34306 0.16693,283.46448 -206.15611,0.12144 -89.27874,-283.41703 -0.16693,-283.46448 z"
         style="fill:none;stroke:#000000;stroke-width:0.03543307;stroke-miterlimit:4;stroke-opacity:1;stroke-dasharray:none"
         id="path3902" />
      <path
         inkscape:connector-curvature="0"
         id="path4204"
         d="m 285.74037,282.59531 c 1.54566,1.20019 1.8257,3.42615 0.62552,4.97179 -1.20018,1.54565 -3.42613,1.82571 -4.97179,0.62551 -1.54566,-1.20019 -1.8257,-3.42614 -0.62552,-4.97179 1.20018,-1.54564 3.42613,-1.8257 4.97179,-0.62551 z"
         style="fill:none;stroke:#000000;stroke-width:0.03543307;stroke-miterlimit:4;stroke-opacity:1;stroke-dasharray:none;display:inline" />
      <path
         style="fill:none;stroke:#000000;stroke-width:0.03543307;stroke-miterlimit:4;stroke-opacity:1;stroke-dasharray:none;display:inline"
         d="m 468.63989,491.90704 c 1.54566,1.2002 1.8257,3.42615 0.62552,4.97179 -1.20018,1.54565 -3.42614,1.82571 -4.9718,0.62552 -1.54565,-1.20019 -1.8257,-3.42615 -0.62551,-4.97179 1.20018,-1.54565 3.42613,-1.82571 4.97179,-0.62552 z"
         id="path4215"
         inkscape:connector-curvature="0" />
      <path
         inkscape:connector-curvature="0"
         id="path4210"
         d="m 229.91033,317.86901 c 1.90992,0.42632 3.1126,2.32022 2.68629,4.23011 -0.42632,1.9099 -2.32021,3.1126 -4.23013,2.68628 -1.90991,-0.42632 -3.11259,-2.32022 -2.68627,-4.23012 0.42631,-1.90989 2.3202,-3.11259 4.23011,-2.68627 z"
         style="fill:none;stroke:#000000;stroke-width:0.03543307;stroke-miterlimit:4;stroke-opacity:1;stroke-dasharray:none;display:inline" />
      <path
         style="fill:none;stroke:#000000;stroke-width:0.03543307;stroke-miterlimit:4;stroke-opacity:1;stroke-dasharray:none;display:inline"
         d="m 484.6131,429.18 c 1.90991,0.42632 3.1126,2.32022 2.68628,4.23012 -0.42631,1.9099 -2.3202,3.11259 -4.23012,2.68627 -1.90991,-0.42632 -3.1126,-2.32021 -2.68628,-4.23011 0.42632,-1.9099 2.32021,-3.1126 4.23012,-2.68628 z"
         id="path4219"
         inkscape:connector-curvature="0" />
      <path
         inkscape:connector-curvature="0"
         id="path4221"
         d="m 487.57726,546.01781 c 1.90992,0.42632 3.11261,2.32022 2.68629,4.23012 -0.42632,1.9099 -2.32021,3.1126 -4.23012,2.68627 -1.90991,-0.42631 -3.1126,-2.32021 -2.68628,-4.23011 0.42632,-1.9099 2.32021,-3.1126 4.23011,-2.68628 z"
         style="fill:none;stroke:#000000;stroke-width:0.03543307;stroke-miterlimit:4;stroke-opacity:1;stroke-dasharray:none;display:inline" />
      <path
         style="fill:none;stroke:#000000;stroke-width:0.03543307;stroke-miterlimit:4;stroke-opacity:1;stroke-dasharray:none;display:inline"
         d="m 308.39917,226.47367 c 1.90992,0.42632 3.11261,2.32022 2.68629,4.23012 -0.42632,1.9099 -2.32021,3.11259 -4.23012,2.68627 -1.90991,-0.42632 -3.1126,-2.32021 -2.68628,-4.23011 0.42632,-1.9099 2.3202,-3.1126 4.23011,-2.68628 z"
         id="path4232"
         inkscape:connector-curvature="0" />
      <path
         inkscape:connector-curvature="0"
         d="m 336.74588,177.20592 c 155.94569,0.0503 360.64175,496.15846 -0.13135,496.06295 -360.773085,-0.0955 -155.81425,-496.11306 0.13135,-496.06295 z m -0.009,35.43307 C 470.40457,212.68239 645.8584,637.91764 336.62431,637.8358 27.390216,637.754 203.06929,212.59603 336.73688,212.63899 z"
         style="fill:none;stroke:#000000;stroke-width:0.03543307;stroke-miterlimit:4;stroke-opacity:1;stroke-dasharray:none"
         id="path3908" />
      <path
         inkscape:connector-curvature="0"
         id="path4226"
         d="m 521.31916,482.55036 c 1.93362,-0.30109 3.7452,1.02233 4.0463,2.95593 0.30109,1.9336 -1.02232,3.74519 -2.95594,4.04629 -1.93361,0.30109 -3.7452,-1.02233 -4.04629,-2.95593 -0.30109,-1.9336 1.02232,-3.7452 2.95593,-4.04629 z"
         style="fill:none;stroke:#000000;stroke-width:0.03543307;stroke-miterlimit:4;stroke-opacity:1;stroke-dasharray:none;display:inline" />
      <path
         style="fill:none;stroke:#000000;stroke-width:0.03543307;stroke-miterlimit:4;stroke-opacity:1;stroke-dasharray:none;display:inline"
         d="m 237.76338,250.58189 c 1.93362,-0.3011 3.74521,1.02233 4.0463,2.95593 0.30109,1.9336 -1.02232,3.74519 -2.95594,4.04629 -1.93361,0.30109 -3.74519,-1.02234 -4.04629,-2.95593 -0.30109,-1.9336 1.02232,-3.7452 2.95593,-4.04629 z"
         id="path4236"
         inkscape:connector-curvature="0" />
      <path
         inkscape:connector-curvature="0"
         id="path4242"
         d="m 264.50341,179.27155 c 1.73508,-0.90501 3.87528,-0.2321 4.78028,1.50297 0.905,1.73506 0.2321,3.87527 -1.50298,4.78027 -1.73507,0.90501 -3.87528,0.23209 -4.78028,-1.50297 -0.90499,-1.73506 -0.23209,-3.87527 1.50298,-4.78027 z"
         style="fill:none;stroke:#000000;stroke-width:0.03543307;stroke-miterlimit:4;stroke-opacity:1;stroke-dasharray:none;display:inline" />
      <path
         style="fill:none;stroke:#000000;stroke-width:0.03543307;stroke-miterlimit:4;stroke-opacity:1;stroke-dasharray:none;display:inline"
         d="m 549.78572,549.99451 c 1.73508,-0.905 3.87528,-0.23209 4.78028,1.50297 0.905,1.73506 0.2321,3.87528 -1.50298,4.78028 -1.73507,0.905 -3.87528,0.23209 -4.78028,-1.50297 -0.90499,-1.73507 -0.23209,-3.87528 1.50298,-4.78028 z"
         id="path4256"
         inkscape:connector-curvature="0" />
      <path
         inkscape:connector-curvature="0"
         d="m 337.33343,106.3265 c 200.50161,0.23724 463.13165,638.31802 -0.71919,637.79493 -463.85076,-0.52302 -199.78207,-638.03237 0.71919,-637.79493 z m -0.04,35.43306 c 178.22361,0.21099 411.67258,567.39377 -0.63928,566.9288 -412.311865,-0.46496 -177.58404,-567.1398 0.63928,-566.9288 z"
         style="fill:none;stroke:#000000;stroke-width:0.03543307;stroke-miterlimit:4;stroke-opacity:1;stroke-dasharray:none"
         id="path3915" />
      <path
         inkscape:connector-curvature="0"
         id="path4248"
         d="m 196.74984,210.54316 c 1.40041,-1.36689 3.64375,-1.33972 5.01063,0.0607 1.36688,1.40039 1.33972,3.64373 -0.0607,5.01062 -1.4004,1.36689 -3.64373,1.33972 -5.01061,-0.0607 -1.36688,-1.4004 -1.33972,-3.64373 0.0607,-5.01062 z"
         style="fill:none;stroke:#000000;stroke-width:0.03543307;stroke-miterlimit:4;stroke-opacity:1;stroke-dasharray:none;display:inline" />
      <path
         style="fill:none;stroke:#000000;stroke-width:0.03543307;stroke-miterlimit:4;stroke-opacity:1;stroke-dasharray:none;display:inline"
         d="m 576.81649,483.25337 c 1.40041,-1.36689 3.64374,-1.33972 5.01063,0.0607 1.36688,1.40039 1.33972,3.64373 -0.0607,5.01062 -1.4004,1.36689 -3.64373,1.33972 -5.01061,-0.0607 -1.36688,-1.4004 -1.33973,-3.64373 0.0607,-5.01062 z"
         id="path4260"
         inkscape:connector-curvature="0" />
      <path
         inkscape:connector-curvature="0"
         id="path4266"
         d="m 601.98336,576.01944 c 1.02669,-1.66596 3.20951,-2.1842 4.87546,-1.15752 1.66596,1.02668 2.1842,3.2095 1.15751,4.87547 -1.02668,1.66596 -3.2095,2.18419 -4.87546,1.15751 -1.66595,-1.02667 -2.18419,-3.2095 -1.15751,-4.87546 z"
         style="fill:none;stroke:#000000;stroke-width:0.03543307;stroke-miterlimit:4;stroke-opacity:1;stroke-dasharray:none;display:inline" />
      <path
         style="fill:none;stroke:#000000;stroke-width:0.03543307;stroke-miterlimit:4;stroke-opacity:1;stroke-dasharray:none;display:inline"
         d="m 229.2346,134.03701 c 1.02669,-1.66596 3.20952,-2.1842 4.87547,-1.15752 1.66595,1.02668 2.1842,3.2095 1.15751,4.87547 -1.02668,1.66596 -3.20951,2.18419 -4.87546,1.15751 -1.66595,-1.02667 -2.1842,-3.2095 -1.15752,-4.87546 z"
         id="path4277"
         inkscape:connector-curvature="0" />
      <path
         inkscape:connector-curvature="0"
         d="M 337.60072,35.433577 C 582.65806,35.757274 903.5428,815.678 336.61416,814.96053 -230.31454,814.24312 92.543662,35.109612 337.60072,35.433577 z m -0.0448,35.433048 C 560.33523,71.160907 852.04873,780.17974 336.65909,779.52752 -178.73077,778.87527 114.77662,70.572084 337.55588,70.866625 z"
         style="fill:none;stroke:#000000;stroke-width:0.03543307;stroke-miterlimit:4;stroke-opacity:1;stroke-dasharray:none"
         id="path3861"
         inkscape:transform-center-x="0.50387711"
         inkscape:transform-center-y="-390.34917" />
      <path
         inkscape:connector-curvature="0"
         id="path4272"
         d="m 627.98673,494.48369 c 0.56592,-1.8733 2.54331,-2.93313 4.41659,-2.36722 1.87329,0.56592 2.93313,2.5433 2.36721,4.4166 -0.56592,1.8733 -2.54331,2.93313 -4.41659,2.36721 -1.87329,-0.56592 -2.93313,-2.54329 -2.36721,-4.41659 z"
         style="fill:none;stroke:#000000;stroke-width:0.03543307;stroke-miterlimit:4;stroke-opacity:1;stroke-dasharray:none;display:inline" />
      <path
         style="fill:none;stroke:#000000;stroke-width:0.03543307;stroke-miterlimit:4;stroke-opacity:1;stroke-dasharray:none;display:inline"
         d="m 154.50053,162.6691 c 0.56593,-1.8733 2.54331,-2.93314 4.4166,-2.36722 1.87328,0.56592 2.93313,2.5433 2.3672,4.4166 -0.56592,1.8733 -2.5433,2.93313 -4.41659,2.36721 -1.87328,-0.56592 -2.93313,-2.5433 -2.36721,-4.41659 z"
         id="path4281"
         inkscape:connector-curvature="0" />
    </g>
  </g>
</svg>
